<svg width="65" height="65" viewBox="0 0 65 65" fill="none" xmlns="http://www.w3.org/2000/svg">
<path d="M27.7604 9.47913H37.2396C38.3614 9.47913 39.2708 10.3885 39.2708 11.5104V16.25H25.7292V11.5104C25.7292 10.3885 26.6386 9.47913 27.7604 9.47913ZM21.6667 11.5104V16.25H16.9271C12.0658 16.25 8.125 20.1908 8.125 25.052V45.3645C8.125 50.2258 12.0658 54.1666 16.9271 54.1666H48.0729C52.9342 54.1666 56.875 50.2258 56.875 45.3645V25.052C56.875 20.1908 52.9342 16.25 48.0729 16.25H43.3333V11.5104C43.3333 8.14489 40.6051 5.41663 37.2396 5.41663H27.7604C24.3949 5.41663 21.6667 8.14489 21.6667 11.5104ZM52.8125 25.052V29.1145C52.8125 31.7321 50.6905 33.8541 48.0729 33.8541H37.9167V32.5C37.9167 31.0042 36.7041 29.7916 35.2083 29.7916H29.7917C28.2959 29.7916 27.0833 31.0042 27.0833 32.5V33.8541H16.9271C14.3095 33.8541 12.1875 31.7321 12.1875 29.1145V25.052C12.1875 22.4344 14.3095 20.3125 16.9271 20.3125H48.0729C50.6905 20.3125 52.8125 22.4344 52.8125 25.052ZM52.8125 36.5329V45.3645C52.8125 47.9821 50.6905 50.1041 48.0729 50.1041H16.9271C14.3095 50.1041 12.1875 47.9821 12.1875 45.3645V36.5329C13.5556 37.4088 15.182 37.9166 16.9271 37.9166H27.0833C27.0833 39.4124 28.2959 40.625 29.7917 40.625H35.2083C36.7041 40.625 37.9167 39.4124 37.9167 37.9166H48.0729C49.818 37.9166 51.4444 37.4088 52.8125 36.5329Z" fill="white"/>
</svg>
