<svg width="65" height="65" viewBox="0 0 65 65" fill="none" xmlns="http://www.w3.org/2000/svg">
<path d="M32.4997 5.42041C43.344 5.42041 52.1351 14.2115 52.1351 25.0558C52.1351 30.7327 49.6958 35.9425 44.9227 40.6068C44.7143 40.8105 44.5529 41.0558 44.4484 41.3253L44.3632 41.6024L41.2998 54.8613C40.6967 57.4719 38.4674 59.3633 35.8316 59.5654L35.3625 59.5833H29.6377C26.9577 59.5833 24.6128 57.8363 23.823 55.3129L23.7 54.8598L20.6407 41.6031C20.5533 41.2242 20.359 40.8784 20.0808 40.6067C15.5324 36.1644 13.102 31.2275 12.8809 25.8636L12.8643 25.0558L12.8748 24.4077C13.2167 13.8634 21.8722 5.42041 32.4997 5.42041ZM38.2278 50.1025H26.7688L27.6584 53.9463C27.8499 54.7758 28.5338 55.3875 29.3582 55.5016L29.6377 55.5208H35.3625C36.2136 55.5208 36.9634 54.9922 37.26 54.2148L37.3416 53.9468L38.2278 50.1025ZM32.4997 9.48291C24.099 9.48291 17.2519 16.1346 16.938 24.4585L16.9268 25.0558L16.9449 25.8061C17.1512 30.0402 19.113 33.9829 22.9193 37.7003C23.6346 38.399 24.1652 39.2611 24.4674 40.2089L24.5992 40.6896L25.8318 46.04H39.1649L40.4049 40.6879C40.6298 39.7146 41.0899 38.8141 41.7416 38.0637L42.0833 37.7013C45.8875 33.9839 47.8483 30.0409 48.0544 25.8062L48.0726 25.0558L48.0613 24.4585C47.7474 16.1346 40.9003 9.48291 32.4997 9.48291Z" fill="white"/>
</svg>
