<svg width="65" height="65" viewBox="0 0 65 65" fill="none" xmlns="http://www.w3.org/2000/svg">
<path d="M14.8962 21.6667C14.8962 17.9273 17.9276 14.8959 21.667 14.8959C25.4064 14.8959 28.4378 17.9273 28.4378 21.6667C28.4378 25.4061 25.4064 28.4375 21.667 28.4375C17.9276 28.4375 14.8962 25.4061 14.8962 21.6667ZM21.667 10.8334C15.6839 10.8334 10.8337 15.6836 10.8337 21.6667C10.8337 27.6498 15.6839 32.5 21.667 32.5C27.6501 32.5 32.5003 27.6498 32.5003 21.6667C32.5003 15.6836 27.6501 10.8334 21.667 10.8334ZM41.9795 24.375C41.9795 22.1314 43.7983 20.3125 46.042 20.3125C48.2856 20.3125 50.1045 22.1314 50.1045 24.375C50.1045 26.6187 48.2856 28.4375 46.042 28.4375C43.7983 28.4375 41.9795 26.6187 41.9795 24.375ZM46.042 16.25C41.5547 16.25 37.917 19.8877 37.917 24.375C37.917 28.8624 41.5547 32.5 46.042 32.5C50.5293 32.5 54.167 28.8624 54.167 24.375C54.167 19.8877 50.5293 16.25 46.042 16.25ZM38.5898 51.5605C40.4917 52.3336 42.932 52.8125 46.0447 52.8125C52.2258 52.8125 55.7559 50.924 57.6821 48.5931C58.6168 47.462 59.0925 46.3198 59.3336 45.4446C59.454 45.0074 59.5169 44.6335 59.5499 44.3544C59.5664 44.2145 59.5755 44.0975 59.5805 44.007C59.583 43.9617 59.5844 43.9229 59.5853 43.8911L59.5861 43.8487L59.5863 43.8315L59.5863 43.8239L59.5863 43.817C59.5863 40.5584 56.9447 37.9167 53.6861 37.9167H38.4033C38.329 37.9167 38.2551 37.9181 38.1815 37.9208C39.2485 39.0341 40.0259 40.4273 40.3925 41.9792H53.6861C54.6923 41.9792 55.5097 42.7879 55.5237 43.7909C55.5227 43.8062 55.5204 43.8359 55.5154 43.8781C55.5034 43.9799 55.4764 44.15 55.4169 44.3657C55.2983 44.7964 55.0546 45.3952 54.5505 46.0052C53.5991 47.1565 51.3739 48.75 46.0447 48.75C43.3903 48.75 41.506 48.3547 40.1656 47.8156C39.8753 48.8994 39.3936 50.2067 38.5898 51.5605ZM11.5107 37.9167C8.14526 37.9167 5.41699 40.645 5.41699 44.0105V44.6904L5.417 44.6936L5.41703 44.7006L5.41717 44.7175L5.41794 44.7625C5.41873 44.7975 5.42015 44.8423 5.42267 44.8963C5.42771 45.0042 5.43716 45.1492 5.45484 45.3261C5.49015 45.6791 5.55871 46.1635 5.6923 46.736C5.95852 47.877 6.49097 49.4011 7.56152 50.9305C9.77919 54.0986 14.0072 56.875 21.667 56.875C29.3267 56.875 33.5548 54.0986 35.7725 50.9305C36.843 49.4011 37.3755 47.877 37.6417 46.736C37.7753 46.1635 37.8438 45.6791 37.8791 45.3261C37.8968 45.1492 37.9063 45.0042 37.9113 44.8963C37.9138 44.8423 37.9152 44.7975 37.916 44.7625L37.9168 44.7175L37.917 44.7006L37.917 44.6936L37.917 44.0105C37.917 40.645 35.1887 37.9167 31.8232 37.9167H11.5107ZM9.48075 44.7069L9.47949 44.6731V44.0105C9.47949 42.8886 10.3889 41.9792 11.5107 41.9792H31.8232C32.9451 41.9792 33.8545 42.8886 33.8545 44.0105V44.673L33.8532 44.7069C33.8513 44.7478 33.8469 44.821 33.8368 44.9218C33.8166 45.1242 33.774 45.4333 33.6855 45.8129C33.5073 46.5762 33.1511 47.5911 32.4443 48.6008C31.1073 50.5109 28.226 52.8125 21.667 52.8125C15.108 52.8125 12.2267 50.5109 10.8897 48.6008C10.1829 47.5911 9.82664 46.5762 9.64852 45.8129C9.55994 45.4333 9.51742 45.1242 9.49718 44.9218C9.4871 44.821 9.48266 44.7478 9.48075 44.7069Z" fill="white"/>
</svg>
