<svg width="65" height="65" viewBox="0 0 65 65" fill="none" xmlns="http://www.w3.org/2000/svg">
<path d="M27.0837 7.44788C37.928 7.44788 46.7191 16.239 46.7191 27.0833C46.7191 31.7738 45.0744 36.0801 42.3304 39.4572L55.6033 52.7303C56.3966 53.5236 56.3966 54.8097 55.6033 55.6029C54.8822 56.3241 53.7537 56.3896 52.9585 55.7996L52.7307 55.6029L39.4575 42.33C36.0805 45.0741 31.7741 46.7187 27.0837 46.7187C16.2393 46.7187 7.44824 37.9276 7.44824 27.0833C7.44824 16.239 16.2393 7.44788 27.0837 7.44788ZM27.0837 11.5104C18.483 11.5104 11.5107 18.4826 11.5107 27.0833C11.5107 35.684 18.483 42.6562 27.0837 42.6562C35.6843 42.6562 42.6566 35.684 42.6566 27.0833C42.6566 18.4826 35.6843 11.5104 27.0837 11.5104Z" fill="white"/>
</svg>
