<svg width="65" height="65" viewBox="0 0 65 65" fill="none" xmlns="http://www.w3.org/2000/svg">
<path d="M50.1038 54.1667C50.1038 54.9115 49.4972 55.5209 48.7497 55.5209H33.2249C32.4471 57.0132 31.4618 58.3801 30.3071 59.5834H48.7497C51.7397 59.5834 54.1663 57.1567 54.1663 54.1667V26.6175C54.1663 25.1821 53.5949 23.8036 52.5793 22.7879L36.7924 7.00377C36.7519 6.96328 36.706 6.92815 36.6604 6.89326C36.6268 6.86747 36.5933 6.84181 36.5622 6.81419C36.3699 6.64085 36.1803 6.47023 35.9691 6.32669C35.9006 6.28049 35.8257 6.24402 35.7511 6.20771C35.7076 6.18656 35.6643 6.16546 35.6224 6.14252C35.5772 6.11705 35.5321 6.09097 35.487 6.06486C35.3402 5.97994 35.1927 5.89464 35.0374 5.82835C34.5038 5.60627 33.9297 5.49523 33.3474 5.4546C33.294 5.4512 33.2411 5.44398 33.1881 5.43675C33.1147 5.42674 33.041 5.41669 32.9655 5.41669H16.2497C13.2597 5.41669 10.833 7.84335 10.833 10.8334V31.1409C12.1172 30.6053 13.4785 30.2175 14.8955 29.9987V10.8334C14.8955 10.0886 15.5022 9.47919 16.2497 9.47919H32.4997V21.6667C32.4997 24.6567 34.9263 27.0834 37.9163 27.0834H50.1038V54.1667ZM36.5622 12.5152L47.0651 23.0209H37.9163C37.1688 23.0209 36.5622 22.4115 36.5622 21.6667V12.5152Z" fill="white"/>
<path d="M50.1038 54.1667C50.1038 54.9115 49.4972 55.5209 48.7497 55.5209H33.2249C32.4471 57.0132 31.4618 58.3801 30.3071 59.5834H48.7497C51.7397 59.5834 54.1663 57.1567 54.1663 54.1667V26.6175C54.1663 25.1821 53.5949 23.8036 52.5793 22.7879L36.7924 7.00377C36.7519 6.96328 36.706 6.92815 36.6604 6.89326C36.6268 6.86747 36.5933 6.84181 36.5622 6.81419C36.3699 6.64085 36.1803 6.47023 35.9691 6.32669C35.9006 6.28049 35.8257 6.24402 35.7511 6.20771C35.7076 6.18656 35.6643 6.16546 35.6224 6.14252C35.5772 6.11705 35.5321 6.09097 35.487 6.06486C35.3402 5.97994 35.1927 5.89464 35.0374 5.82835C34.5038 5.60627 33.9297 5.49523 33.3474 5.4546C33.294 5.4512 33.2411 5.44398 33.1881 5.43675C33.1147 5.42674 33.041 5.41669 32.9655 5.41669H16.2497C13.2597 5.41669 10.833 7.84335 10.833 10.8334V31.1409C12.1172 30.6053 13.4785 30.2175 14.8955 29.9987V10.8334C14.8955 10.0886 15.5022 9.47919 16.2497 9.47919H32.4997V21.6667C32.4997 24.6567 34.9263 27.0834 37.9163 27.0834H50.1038V54.1667ZM36.5622 12.5152L47.0651 23.0209H37.9163C37.1688 23.0209 36.5622 22.4115 36.5622 21.6667V12.5152Z" fill="url(#paint0_linear_254_439)"/>
<path d="M32.4997 47.3959C32.4997 55.6226 25.8306 62.2917 17.6038 62.2917C9.3771 62.2917 2.70801 55.6226 2.70801 47.3959C2.70801 39.1691 9.3771 32.5 17.6038 32.5C25.8306 32.5 32.4997 39.1691 32.4997 47.3959ZM26.6864 41.0216C26.1575 40.4928 25.3001 40.4928 24.7713 41.0216L14.8955 50.8974L10.4364 46.4383C9.90755 45.9095 9.05014 45.9095 8.5213 46.4383C7.99247 46.9671 7.99247 47.8246 8.5213 48.3534L13.938 53.7701C14.4668 54.2989 15.3242 54.2989 15.853 53.7701L26.6864 42.9367C27.2152 42.4079 27.2152 41.5505 26.6864 41.0216Z" fill="white"/>
<path d="M32.4997 47.3959C32.4997 55.6226 25.8306 62.2917 17.6038 62.2917C9.3771 62.2917 2.70801 55.6226 2.70801 47.3959C2.70801 39.1691 9.3771 32.5 17.6038 32.5C25.8306 32.5 32.4997 39.1691 32.4997 47.3959ZM26.6864 41.0216C26.1575 40.4928 25.3001 40.4928 24.7713 41.0216L14.8955 50.8974L10.4364 46.4383C9.90755 45.9095 9.05014 45.9095 8.5213 46.4383C7.99247 46.9671 7.99247 47.8246 8.5213 48.3534L13.938 53.7701C14.4668 54.2989 15.3242 54.2989 15.853 53.7701L26.6864 42.9367C27.2152 42.4079 27.2152 41.5505 26.6864 41.0216Z" fill="url(#paint1_linear_254_439)"/>
<defs>
<linearGradient id="paint0_linear_254_439" x1="54.1663" y1="33.8542" x2="2.70801" y2="33.8542" gradientUnits="userSpaceOnUse">
<stop stop-color="#5BA4FA"/>
<stop offset="1" stop-color="#0788FF"/>
</linearGradient>
<linearGradient id="paint1_linear_254_439" x1="54.1663" y1="33.8542" x2="2.70801" y2="33.8542" gradientUnits="userSpaceOnUse">
<stop stop-color="#5BA4FA"/>
<stop offset="1" stop-color="#0788FF"/>
</linearGradient>
</defs>
</svg>
