<svg width="65" height="65" viewBox="0 0 65 65" fill="none" xmlns="http://www.w3.org/2000/svg">
<path d="M20.1095 7.66601C20.5899 6.31732 21.8668 5.41669 23.2986 5.41669H40.7771C43.0879 5.41669 44.7195 7.68051 43.9888 9.87267L40.0575 21.6667H50.7791C53.7695 21.6667 55.2913 25.2602 53.2105 27.4078L23.2537 58.3268C20.3998 61.2723 15.4755 58.6144 16.3717 54.6122L19.8092 39.2612L15.5613 39.2449C12.293 39.2324 10.0179 35.9936 11.1147 32.9148L20.1095 7.66601ZM23.7761 9.47919L14.9417 34.2781C14.785 34.718 15.11 35.1806 15.5769 35.1824L22.3512 35.2084C22.9665 35.2107 23.5476 35.4919 23.9314 35.9729C24.3151 36.454 24.4601 37.083 24.3256 37.6835L20.336 55.4999L49.1803 25.7292H37.2393C36.5863 25.7292 35.9732 25.4153 35.5914 24.8856C35.2097 24.3559 35.1058 23.675 35.3123 23.0556L39.8377 9.47919H23.7761Z" fill="url(#paint0_linear_254_724)"/>
<defs>
<linearGradient id="paint0_linear_254_724" x1="54.1713" y1="32.4983" x2="10.8359" y2="32.4983" gradientUnits="userSpaceOnUse">
<stop stop-color="#5BA4FA"/>
<stop offset="1" stop-color="#0788FF"/>
</linearGradient>
</defs>
</svg>
