<svg width="65" height="65" viewBox="0 0 65 65" fill="none" xmlns="http://www.w3.org/2000/svg">
<path d="M28.4378 21.6667C23.9505 21.6667 20.3128 25.3044 20.3128 29.7917C20.3128 34.279 23.9505 37.9167 28.4378 37.9167C32.9251 37.9167 36.5628 34.279 36.5628 29.7917C36.5628 25.3044 32.9251 21.6667 28.4378 21.6667ZM24.3753 29.7917C24.3753 27.548 26.1942 25.7292 28.4378 25.7292C30.6815 25.7292 32.5003 27.548 32.5003 29.7917C32.5003 32.0353 30.6815 33.8542 28.4378 33.8542C26.1942 33.8542 24.3753 32.0353 24.3753 29.7917ZM5.41699 19.6354C5.41699 16.27 8.14526 13.5417 11.5107 13.5417H45.3649C48.7304 13.5417 51.4587 16.27 51.4587 19.6354V39.9479C51.4587 43.3134 48.7304 46.0417 45.3649 46.0417H11.5107C8.14526 46.0417 5.41699 43.3134 5.41699 39.9479V19.6354ZM11.5107 17.6042C10.3889 17.6042 9.47949 18.5136 9.47949 19.6354V21.6667H11.5107C12.6326 21.6667 13.542 20.7573 13.542 19.6354V17.6042H11.5107ZM9.47949 33.8542H11.5107C14.8762 33.8542 17.6045 36.5825 17.6045 39.9479V41.9792H39.2712V39.9479C39.2712 36.5825 41.9994 33.8542 45.3649 33.8542H47.3962V25.7292H45.3649C41.9994 25.7292 39.2712 23.0009 39.2712 19.6354V17.6042H17.6045V19.6354C17.6045 23.0009 14.8762 25.7292 11.5107 25.7292H9.47949V33.8542ZM47.3962 21.6667V19.6354C47.3962 18.5136 46.4867 17.6042 45.3649 17.6042H43.3337V19.6354C43.3337 20.7573 44.2431 21.6667 45.3649 21.6667H47.3962ZM47.3962 37.9167H45.3649C44.2431 37.9167 43.3337 38.8261 43.3337 39.9479V41.9792H45.3649C46.4867 41.9792 47.3962 41.0698 47.3962 39.9479V37.9167ZM9.47949 39.9479C9.47949 41.0698 10.3889 41.9792 11.5107 41.9792H13.542V39.9479C13.542 38.8261 12.6326 37.9167 11.5107 37.9167H9.47949V39.9479ZM11.9207 50.1042C13.3255 52.5328 15.9513 54.1667 18.9587 54.1667H46.7191C53.824 54.1667 59.5837 48.4071 59.5837 41.3022V27.0834C59.5837 24.076 57.9498 21.4502 55.5212 20.0454V41.3022C55.5212 46.1634 51.5804 50.1042 46.7191 50.1042H11.9207Z" fill="url(#paint0_linear_254_1068)"/>
<defs>
<linearGradient id="paint0_linear_254_1068" x1="59.5837" y1="33.8542" x2="5.41699" y2="33.8542" gradientUnits="userSpaceOnUse">
<stop stop-color="#5BA4FA"/>
<stop offset="1" stop-color="#0788FF"/>
</linearGradient>
</defs>
</svg>
