<svg width="65" height="65" viewBox="0 0 65 65" fill="none" xmlns="http://www.w3.org/2000/svg">
<path d="M20.313 9.47919C18.0692 9.47919 16.2503 11.2981 16.2503 13.5417C16.2503 15.7853 18.0692 17.6042 20.313 17.6042C22.5568 17.6042 24.3757 15.7853 24.3757 13.5417C24.3757 11.2981 22.5568 9.47919 20.313 9.47919ZM12.1878 13.5417C12.1878 9.05431 15.8257 5.41669 20.313 5.41669C24.8004 5.41669 28.4382 9.05431 28.4382 13.5417C28.4382 18.0291 24.8004 21.6667 20.313 21.6667C15.8257 21.6667 12.1878 18.0291 12.1878 13.5417ZM10.2049 24.375C7.56061 24.375 5.41699 26.5186 5.41699 29.1629V30.1362C5.41697 30.7004 5.41682 33.9517 7.31514 37.1114C8.79611 39.5764 11.3118 41.7899 15.3708 42.782C15.9283 41.2949 16.9447 40.032 18.2475 39.1659C13.9037 38.701 11.851 36.7728 10.7975 35.0192C9.48653 32.8371 9.47949 30.5145 9.47949 30.1302V29.1629C9.47949 28.7623 9.80427 28.4375 10.2049 28.4375H21.7508C21.9335 26.9724 22.4088 25.5981 23.1163 24.375H10.2049ZM41.8847 24.375C42.5923 25.5981 43.0675 26.9724 43.2502 28.4375H54.7958C55.1964 28.4375 55.5212 28.7623 55.5212 29.1629V30.1302C55.5212 30.5145 55.5141 32.8371 54.2032 35.0192C53.1496 36.7728 51.097 38.701 46.7531 39.1659C48.056 40.032 49.0723 41.2949 49.6298 42.782C53.6888 41.7899 56.2045 39.5764 57.6855 37.1114C59.5838 33.9517 59.5837 30.7004 59.5837 30.1362V29.1629C59.5837 26.5186 57.44 24.375 54.7958 24.375H41.8847ZM40.6253 13.5417C40.6253 11.2981 42.4442 9.47919 44.688 9.47919C46.9318 9.47919 48.7507 11.2981 48.7507 13.5417C48.7507 15.7853 46.9318 17.6042 44.688 17.6042C42.4442 17.6042 40.6253 15.7853 40.6253 13.5417ZM44.688 5.41669C40.2007 5.41669 36.5628 9.05431 36.5628 13.5417C36.5628 18.0291 40.2007 21.6667 44.688 21.6667C49.1754 21.6667 52.8132 18.0291 52.8132 13.5417C52.8132 9.05431 49.1754 5.41669 44.688 5.41669ZM32.5005 25.7292C30.2567 25.7292 28.4378 27.5481 28.4378 29.7917C28.4378 32.0353 30.2567 33.8542 32.5005 33.8542C34.7443 33.8542 36.5632 32.0353 36.5632 29.7917C36.5632 27.5481 34.7443 25.7292 32.5005 25.7292ZM24.3753 29.7917C24.3753 25.3043 28.0132 21.6667 32.5005 21.6667C36.9879 21.6667 40.6257 25.3043 40.6257 29.7917C40.6257 34.2791 36.9879 37.9167 32.5005 37.9167C28.0132 37.9167 24.3753 34.2791 24.3753 29.7917ZM17.6045 45.4129C17.6045 42.7686 19.7481 40.625 22.3924 40.625H42.6083C45.2525 40.625 47.3962 42.7686 47.3962 45.4129V46.3862C47.3962 46.9504 47.3963 50.2017 45.498 53.3614C43.4901 56.7035 39.58 59.5834 32.5003 59.5834C25.4207 59.5834 21.5106 56.7035 19.5026 53.3614C17.6043 50.2017 17.6045 46.9504 17.6045 46.3862V45.4129ZM22.3924 44.6875C21.9918 44.6875 21.667 45.0123 21.667 45.4129V46.3802C21.667 46.7645 21.674 49.0871 22.985 51.2692C24.1932 53.2803 26.7154 55.5209 32.5003 55.5209C38.2852 55.5209 40.8074 53.2803 42.0157 51.2692C43.3266 49.0871 43.3337 46.7645 43.3337 46.3802V45.4129C43.3337 45.0123 43.0089 44.6875 42.6083 44.6875H22.3924Z" fill="white"/>
<path d="M20.313 9.47919C18.0692 9.47919 16.2503 11.2981 16.2503 13.5417C16.2503 15.7853 18.0692 17.6042 20.313 17.6042C22.5568 17.6042 24.3757 15.7853 24.3757 13.5417C24.3757 11.2981 22.5568 9.47919 20.313 9.47919ZM12.1878 13.5417C12.1878 9.05431 15.8257 5.41669 20.313 5.41669C24.8004 5.41669 28.4382 9.05431 28.4382 13.5417C28.4382 18.0291 24.8004 21.6667 20.313 21.6667C15.8257 21.6667 12.1878 18.0291 12.1878 13.5417ZM10.2049 24.375C7.56061 24.375 5.41699 26.5186 5.41699 29.1629V30.1362C5.41697 30.7004 5.41682 33.9517 7.31514 37.1114C8.79611 39.5764 11.3118 41.7899 15.3708 42.782C15.9283 41.2949 16.9447 40.032 18.2475 39.1659C13.9037 38.701 11.851 36.7728 10.7975 35.0192C9.48653 32.8371 9.47949 30.5145 9.47949 30.1302V29.1629C9.47949 28.7623 9.80427 28.4375 10.2049 28.4375H21.7508C21.9335 26.9724 22.4088 25.5981 23.1163 24.375H10.2049ZM41.8847 24.375C42.5923 25.5981 43.0675 26.9724 43.2502 28.4375H54.7958C55.1964 28.4375 55.5212 28.7623 55.5212 29.1629V30.1302C55.5212 30.5145 55.5141 32.8371 54.2032 35.0192C53.1496 36.7728 51.097 38.701 46.7531 39.1659C48.056 40.032 49.0723 41.2949 49.6298 42.782C53.6888 41.7899 56.2045 39.5764 57.6855 37.1114C59.5838 33.9517 59.5837 30.7004 59.5837 30.1362V29.1629C59.5837 26.5186 57.44 24.375 54.7958 24.375H41.8847ZM40.6253 13.5417C40.6253 11.2981 42.4442 9.47919 44.688 9.47919C46.9318 9.47919 48.7507 11.2981 48.7507 13.5417C48.7507 15.7853 46.9318 17.6042 44.688 17.6042C42.4442 17.6042 40.6253 15.7853 40.6253 13.5417ZM44.688 5.41669C40.2007 5.41669 36.5628 9.05431 36.5628 13.5417C36.5628 18.0291 40.2007 21.6667 44.688 21.6667C49.1754 21.6667 52.8132 18.0291 52.8132 13.5417C52.8132 9.05431 49.1754 5.41669 44.688 5.41669ZM32.5005 25.7292C30.2567 25.7292 28.4378 27.5481 28.4378 29.7917C28.4378 32.0353 30.2567 33.8542 32.5005 33.8542C34.7443 33.8542 36.5632 32.0353 36.5632 29.7917C36.5632 27.5481 34.7443 25.7292 32.5005 25.7292ZM24.3753 29.7917C24.3753 25.3043 28.0132 21.6667 32.5005 21.6667C36.9879 21.6667 40.6257 25.3043 40.6257 29.7917C40.6257 34.2791 36.9879 37.9167 32.5005 37.9167C28.0132 37.9167 24.3753 34.2791 24.3753 29.7917ZM17.6045 45.4129C17.6045 42.7686 19.7481 40.625 22.3924 40.625H42.6083C45.2525 40.625 47.3962 42.7686 47.3962 45.4129V46.3862C47.3962 46.9504 47.3963 50.2017 45.498 53.3614C43.4901 56.7035 39.58 59.5834 32.5003 59.5834C25.4207 59.5834 21.5106 56.7035 19.5026 53.3614C17.6043 50.2017 17.6045 46.9504 17.6045 46.3862V45.4129ZM22.3924 44.6875C21.9918 44.6875 21.667 45.0123 21.667 45.4129V46.3802C21.667 46.7645 21.674 49.0871 22.985 51.2692C24.1932 53.2803 26.7154 55.5209 32.5003 55.5209C38.2852 55.5209 40.8074 53.2803 42.0157 51.2692C43.3266 49.0871 43.3337 46.7645 43.3337 46.3802V45.4129C43.3337 45.0123 43.0089 44.6875 42.6083 44.6875H22.3924Z" fill="url(#paint0_linear_254_427)"/>
<defs>
<linearGradient id="paint0_linear_254_427" x1="59.5837" y1="32.5" x2="5.41699" y2="32.5" gradientUnits="userSpaceOnUse">
<stop stop-color="#5BA4FA"/>
<stop offset="1" stop-color="#0788FF"/>
</linearGradient>
</defs>
</svg>
