<svg width="65" height="65" viewBox="0 0 65 65" fill="none" xmlns="http://www.w3.org/2000/svg">
<path d="M32.4998 13.5416C45.2139 13.5416 55.5207 23.8484 55.5207 36.5625C55.5207 49.2765 45.2139 59.5833 32.4998 59.5833C19.7858 59.5833 9.479 49.2765 9.479 36.5625C9.479 23.8484 19.7858 13.5416 32.4998 13.5416ZM32.4998 17.6041C22.0294 17.6041 13.5415 26.0921 13.5415 36.5625C13.5415 47.0329 22.0294 55.5208 32.4998 55.5208C42.9702 55.5208 51.4582 47.0329 51.4582 36.5625C51.4582 26.0921 42.9702 17.6041 32.4998 17.6041ZM32.4998 21.6666C33.5282 21.6666 34.378 22.4308 34.5125 23.4223L34.5311 23.6979V35.8854C34.5311 37.0072 33.6217 37.9166 32.4998 37.9166C31.4715 37.9166 30.6216 37.1525 30.4871 36.161L30.4686 35.8854V23.6979C30.4686 22.5761 31.378 21.6666 32.4998 21.6666ZM51.8568 13.8496L52.0805 14.0117L55.2179 16.623C56.0801 17.3407 56.1973 18.6214 55.4796 19.4837C54.8218 20.2741 53.6908 20.4384 52.8427 19.9075L52.619 19.7454L49.4816 17.1341C48.6194 16.4164 48.5022 15.1357 49.2199 14.2734C49.8777 13.4831 51.0088 13.3187 51.8568 13.8496ZM38.5936 6.77081C39.7154 6.77081 40.6248 7.68023 40.6248 8.80206C40.6248 9.83041 39.8607 10.6803 38.8692 10.8148L38.5936 10.8333H26.4061C25.2843 10.8333 24.3748 9.92389 24.3748 8.80206C24.3748 7.77372 25.139 6.92386 26.1305 6.78936L26.4061 6.77081H38.5936Z" fill="#04071E"/>
<path d="M32.4998 13.5416C45.2139 13.5416 55.5207 23.8484 55.5207 36.5625C55.5207 49.2765 45.2139 59.5833 32.4998 59.5833C19.7858 59.5833 9.479 49.2765 9.479 36.5625C9.479 23.8484 19.7858 13.5416 32.4998 13.5416ZM32.4998 17.6041C22.0294 17.6041 13.5415 26.0921 13.5415 36.5625C13.5415 47.0329 22.0294 55.5208 32.4998 55.5208C42.9702 55.5208 51.4582 47.0329 51.4582 36.5625C51.4582 26.0921 42.9702 17.6041 32.4998 17.6041ZM32.4998 21.6666C33.5282 21.6666 34.378 22.4308 34.5125 23.4223L34.5311 23.6979V35.8854C34.5311 37.0072 33.6217 37.9166 32.4998 37.9166C31.4715 37.9166 30.6216 37.1525 30.4871 36.161L30.4686 35.8854V23.6979C30.4686 22.5761 31.378 21.6666 32.4998 21.6666ZM51.8568 13.8496L52.0805 14.0117L55.2179 16.623C56.0801 17.3407 56.1973 18.6214 55.4796 19.4837C54.8218 20.2741 53.6908 20.4384 52.8427 19.9075L52.619 19.7454L49.4816 17.1341C48.6194 16.4164 48.5022 15.1357 49.2199 14.2734C49.8777 13.4831 51.0088 13.3187 51.8568 13.8496ZM38.5936 6.77081C39.7154 6.77081 40.6248 7.68023 40.6248 8.80206C40.6248 9.83041 39.8607 10.6803 38.8692 10.8148L38.5936 10.8333H26.4061C25.2843 10.8333 24.3748 9.92389 24.3748 8.80206C24.3748 7.77372 25.139 6.92386 26.1305 6.78936L26.4061 6.77081H38.5936Z" fill="url(#paint0_linear_254_1052)"/>
<defs>
<linearGradient id="paint0_linear_254_1052" x1="55.9497" y1="33.1771" x2="9.479" y2="33.1771" gradientUnits="userSpaceOnUse">
<stop stop-color="#5BA4FA"/>
<stop offset="1" stop-color="#0788FF"/>
</linearGradient>
</defs>
</svg>
