<svg width="40" height="41" viewBox="0 0 40 41" fill="none" xmlns="http://www.w3.org/2000/svg">
<path d="M13.0709 4.73297C10.9881 4.20534 8.80988 4.4298 7.10201 5.38535C5.36368 6.35795 4.14333 8.08038 4.08312 10.3882C3.98912 13.9909 4.82414 18.826 8.1363 24.5039C11.406 30.109 15.0166 33.4685 18.0112 35.4661C19.9032 36.7282 21.9946 36.7616 23.7807 35.9385C25.5387 35.1284 26.9676 33.5113 27.7095 31.5053C28.083 30.4956 27.9951 29.373 27.4691 28.4337L25.5621 25.0283C24.3493 22.8627 21.7315 21.9145 19.4132 22.8013L18.0818 23.3106C17.4367 23.5574 16.8433 23.4436 16.5061 23.1125C15.3757 22.0022 14.5681 20.4946 14.2018 18.8705C14.0866 18.3598 14.3206 17.7559 14.886 17.3292L16.0882 16.422C18.0987 14.9047 18.6667 12.129 17.414 9.94395L15.4703 6.5538C14.9502 5.6468 14.0844 4.98971 13.0709 4.73297ZM6.08244 10.4404C6.12278 8.89423 6.90507 7.7873 8.07856 7.13074C9.28251 6.45712 10.9253 6.25259 12.5797 6.67172C13.0678 6.79536 13.4848 7.1118 13.7352 7.54858L15.6789 10.9387C16.4306 12.2497 16.0897 13.9152 14.8835 14.8255L13.6812 15.7328C12.6428 16.5165 11.9239 17.8613 12.2508 19.3106C12.6942 21.2761 13.6766 23.1367 15.1047 24.5393C16.1474 25.5635 17.635 25.6228 18.7964 25.1786L20.1278 24.6693C21.5187 24.1373 23.0894 24.7061 23.8171 26.0055L25.7241 29.4109C25.9639 29.8392 26.004 30.3511 25.8337 30.8115C25.2533 32.3807 24.165 33.5593 22.9437 34.1221C21.7504 34.672 20.4002 34.6556 19.1211 33.8023C16.3795 31.9735 12.9801 28.8383 9.86385 23.4961C6.73703 18.1359 5.99824 13.6674 6.08244 10.4404ZM25.4856 4.62579C25.0028 4.35757 24.394 4.53152 24.1258 5.0143C23.8576 5.49708 24.0315 6.10589 24.5143 6.3741L25.2823 6.80073C30.1523 9.50631 33.3876 14.4264 33.942 19.9698L34.0049 20.5994C34.0599 21.149 34.5499 21.5499 35.0995 21.495C35.649 21.44 36.05 20.95 35.995 20.4004L35.932 19.7708C35.3125 13.5752 31.6965 8.0763 26.2535 5.05242L25.4856 4.62579ZM23.1426 9.98548C23.4267 9.5119 24.041 9.35833 24.5145 9.64248L24.7628 9.79142C28.0289 11.7511 30.2713 15.0446 30.8975 18.8016L30.9864 19.3356C31.0772 19.8803 30.7092 20.3956 30.1644 20.4864C29.6197 20.5772 29.1045 20.2091 29.0137 19.6644L28.9247 19.1304C28.3948 15.9514 26.4974 13.1646 23.7338 11.5064L23.4856 11.3575C23.012 11.0733 22.8584 10.4591 23.1426 9.98548Z" fill="url(#paint0_linear_220_917)"/>
<path fill-rule="evenodd" clip-rule="evenodd" d="M6.97995 5.16718C8.75085 4.17636 10.996 3.94945 13.1323 4.49062C14.2114 4.76401 15.1334 5.46368 15.6871 6.42945L17.6309 9.8196C18.9463 12.1139 18.3498 15.0284 16.2388 16.6215L15.0366 17.5288C14.532 17.9096 14.3565 18.4203 14.4457 18.8155C14.8024 20.3968 15.588 21.8604 16.6813 22.9341C16.9318 23.1802 17.4144 23.2982 17.9925 23.0771L19.3239 22.5678C21.7581 21.6367 24.5068 22.6322 25.7802 24.9062L27.6872 28.3115C28.249 29.3147 28.3428 30.5137 27.944 31.592C27.1819 33.6526 25.7105 35.3245 23.8853 36.1656C22.0252 37.0227 19.8411 36.9873 17.8725 35.6741C14.8463 33.6554 11.2092 30.2678 7.92036 24.6299C4.58503 18.9122 3.73798 14.0313 3.8332 10.3817C3.8959 7.97851 5.17113 6.17922 6.97995 5.16718ZM13.0095 4.97531C10.9802 4.46124 8.86891 4.68324 7.22408 5.60353C5.55623 6.53669 4.39076 8.18224 4.33303 10.3947C4.24026 13.9505 5.06325 18.7397 8.35224 24.3779C11.6027 29.9501 15.187 33.2816 18.1499 35.2581C19.9652 36.4691 21.964 36.5004 23.6761 35.7115C25.367 34.9323 26.7533 33.3701 27.475 31.4186C27.8231 30.4775 27.7412 29.4312 27.251 28.5558L25.344 25.1505C24.1918 23.0931 21.7049 22.1924 19.5025 23.0348L18.1712 23.5441C17.459 23.8165 16.7547 23.7071 16.3309 23.2908C15.1633 22.144 14.3339 20.5923 13.9579 18.9255C13.8167 18.2993 14.1091 17.6023 14.7354 17.1297L15.9376 16.2224C17.8476 14.7811 18.3872 12.1441 17.1971 10.0683L15.2534 6.67814C14.767 5.82993 13.9573 5.21542 13.0095 4.97531ZM23.9073 4.89289C24.2425 4.28941 25.0035 4.07198 25.607 4.40725L26.375 4.83388C31.8895 7.89754 35.5531 13.4688 36.1808 19.746L36.2438 20.3756C36.3125 21.0625 35.8113 21.675 35.1243 21.7437C34.4374 21.8124 33.8249 21.3113 33.7562 20.6243L33.6932 19.9947C33.147 14.5328 29.9593 9.68506 25.1608 7.01927L24.3929 6.59264C23.7894 6.25737 23.572 5.49637 23.9073 4.89289ZM25.3642 4.84433C25.0021 4.64317 24.5455 4.77362 24.3443 5.13571C24.1432 5.4978 24.2736 5.9544 24.6357 6.15556L25.4037 6.58219C30.3453 9.32756 33.6282 14.32 34.1907 19.945L34.2537 20.5746C34.2949 20.9867 34.6624 21.2874 35.0746 21.2462C35.4867 21.205 35.7875 20.8375 35.7462 20.4253L35.6833 19.7957C35.0719 13.6816 31.5035 8.25505 26.1321 5.27096L25.3642 4.84433ZM12.5183 6.91407C10.9175 6.50852 9.34165 6.7105 8.20063 7.34891C7.09794 7.96587 6.37021 8.99576 6.33235 10.4469C6.24938 13.6269 6.97614 18.0497 10.0798 23.3702C13.1769 28.6795 16.5499 31.7866 19.2598 33.5944C20.4625 34.3966 21.72 34.4107 22.839 33.8951C23.9933 33.3631 25.0391 32.2393 25.5992 30.7248C25.7441 30.333 25.71 29.8975 25.506 29.533L23.5989 26.1277C22.9319 24.9366 21.4921 24.4151 20.2171 24.9028L18.8857 25.4121C17.6608 25.8806 16.0611 25.8291 14.9295 24.7177C13.4642 23.2785 12.4599 21.3738 12.0069 19.3656C11.6534 17.7982 12.4338 16.361 13.5306 15.5333L14.7329 14.626C15.8386 13.7915 16.1511 12.2648 15.462 11.0631L13.5183 7.67293C13.3016 7.29492 12.9407 7.02107 12.5183 6.91407ZM7.95649 6.91256C9.22337 6.20374 10.933 5.99667 12.6411 6.42938C13.1949 6.56966 13.668 6.92867 13.9521 7.42423L15.8958 10.8144C16.7101 12.2347 16.3409 14.0389 15.0341 15.0251L13.8318 15.9324C12.8518 16.672 12.1944 17.9244 12.4947 19.2556C12.9284 21.1784 13.889 22.9949 15.2798 24.361C16.2337 25.2979 17.6092 25.3651 18.7071 24.9451L20.0384 24.4358C21.5453 23.8594 23.2469 24.4757 24.0352 25.8834L25.9422 29.2887C26.2178 29.7809 26.2639 30.3692 26.0682 30.8982C25.4676 32.5221 24.3366 33.7555 23.0483 34.3492C21.7808 34.9332 20.338 34.9146 18.9823 34.0103C16.2092 32.1604 12.7834 28.9971 9.64791 23.6221C6.49792 18.2222 5.7471 13.7078 5.83252 10.4339C5.87534 8.7927 6.71221 7.60874 7.95649 6.91256ZM24.3859 9.85685C24.0307 9.64374 23.57 9.75892 23.3569 10.1141C23.1438 10.4693 23.259 10.93 23.6142 11.1431L23.8624 11.292C26.6889 12.9879 28.6294 15.838 29.1713 19.0893L29.2603 19.6233C29.3284 20.0318 29.7148 20.3079 30.1234 20.2398C30.5319 20.1717 30.8079 19.7853 30.7398 19.3767L30.6509 18.8427C30.0367 15.1579 27.8375 11.9278 24.6342 10.0058L24.3859 9.85685ZM22.9282 9.85685C23.2834 9.26488 24.0512 9.07292 24.6432 9.42811L24.8914 9.57705C28.2203 11.5744 30.5058 14.9312 31.1441 18.7605L31.233 19.2945C31.3465 19.9754 30.8865 20.6195 30.2056 20.733C29.5246 20.8465 28.8806 20.3864 28.7671 19.7055L28.6781 19.1715C28.1603 16.0647 26.306 13.3413 23.6052 11.7208L23.3569 11.5718C22.765 11.2167 22.573 10.4488 22.9282 9.85685Z" fill="url(#paint1_linear_220_917)"/>
<defs>
<linearGradient id="paint0_linear_220_917" x1="36.2501" y1="20.4751" x2="3.82617" y2="20.4751" gradientUnits="userSpaceOnUse">
<stop stop-color="#5BA4FA"/>
<stop offset="1" stop-color="#0788FF"/>
</linearGradient>
<linearGradient id="paint1_linear_220_917" x1="36.2501" y1="20.4751" x2="3.82617" y2="20.4751" gradientUnits="userSpaceOnUse">
<stop stop-color="#5BA4FA"/>
<stop offset="1" stop-color="#0788FF"/>
</linearGradient>
</defs>
</svg>
