<svg width="306" height="77" viewBox="0 0 306 77" fill="none" xmlns="http://www.w3.org/2000/svg">
<path fill-rule="evenodd" clip-rule="evenodd" d="M26.0442 69.6266V48.4331H25.0122V68.281L22.2604 65.5897V45.4054C0.933148 36.3225 6.78093 10.7557 26.0442 9.41012C45.9955 9.41012 52.5312 36.3225 30.516 45.4054V51.1243H29.4841V58.1888H30.516V59.8708L28.4521 60.8801V62.8985H30.516V66.5989L27.7641 69.6266H26.0442ZM32.924 36.6589C30.516 33.2949 22.9483 33.2949 20.5404 36.6589H16.7566C16.1655 36.6011 16.7566 35.3133 16.0686 35.3133C15.3806 35.3133 15.3806 35.3133 15.3806 34.6405V26.9032C15.3806 26.2304 17.2149 24.8863 16.4126 24.5483C14.506 24.6685 14.0933 24.2423 14.0047 23.5391C13.9644 22.6385 13.6741 22.2163 14.3487 22.1935H16.7566C17.1006 22.1935 17.1006 23.5391 17.1006 23.5391H18.4765C18.4765 23.5391 18.4765 19.8387 20.5404 19.8387H32.236C33.8883 20.1165 34.9708 21.0085 34.9879 23.5391H36.3638C37.0518 23.5391 36.3638 22.1935 37.0518 22.1935H38.4277C39.4597 22.1935 39.8037 21.8571 39.4597 23.5391C39.1157 25.2212 36.7756 24.0562 37.0518 24.8847C37.0518 24.8847 38.4277 26.2304 38.4277 26.9032V34.6405C38.4277 34.9769 38.4277 35.3133 37.7398 35.3133C36.88 35.1856 37.8011 36.4662 37.0518 36.6589H32.924Z" fill="url(#paint0_linear_220_971)"/>
<path fill-rule="evenodd" clip-rule="evenodd" d="M26.0442 69.6266V48.4331H25.0122V68.281L22.2604 65.5897V45.4054C0.933148 36.3225 6.78093 10.7557 26.0442 9.41012C45.9955 9.41012 52.5312 36.3225 30.516 45.4054V51.1243H29.4841V58.1888H30.516V59.8708L28.4521 60.8801V62.8985H30.516V66.5989L27.7641 69.6266H26.0442ZM32.924 36.6589C30.516 33.2949 22.9483 33.2949 20.5404 36.6589H16.7566C16.1655 36.6011 16.7566 35.3133 16.0686 35.3133C15.3806 35.3133 15.3806 35.3133 15.3806 34.6405V26.9032C15.3806 26.2304 17.2149 24.8863 16.4126 24.5483C14.506 24.6685 14.0933 24.2423 14.0047 23.5391C13.9644 22.6385 13.6741 22.2163 14.3487 22.1935H16.7566C17.1006 22.1935 17.1006 23.5391 17.1006 23.5391H18.4765C18.4765 23.5391 18.4765 19.8387 20.5404 19.8387H32.236C33.8883 20.1165 34.9708 21.0085 34.9879 23.5391H36.3638C37.0518 23.5391 36.3638 22.1935 37.0518 22.1935H38.4277C39.4597 22.1935 39.8037 21.8571 39.4597 23.5391C39.1157 25.2212 36.7756 24.0562 37.0518 24.8847C37.0518 24.8847 38.4277 26.2304 38.4277 26.9032V34.6405C38.4277 34.9769 38.4277 35.3133 37.7398 35.3133C36.88 35.1856 37.8011 36.4662 37.0518 36.6589H32.924Z" fill="white"/>
<path fill-rule="evenodd" clip-rule="evenodd" d="M26.7 76C76.6093 14.1277 39.4586 1.00788 26.7322 1C14.0057 0.992123 -24.1675 16.1461 26.7 76ZM26.0442 48.4331V69.6266H27.7641L30.516 66.5989V62.8985H28.4521V60.8801L30.516 59.8708V58.1888H29.4841V51.1243H30.516V45.4054C52.5312 36.3225 45.9955 9.41012 26.0442 9.41012C6.78093 10.7557 0.933148 36.3225 22.2604 45.4054V65.5897L25.0122 68.281V48.4331H26.0442Z" fill="white"/>
<path fill-rule="evenodd" clip-rule="evenodd" d="M26.7 76C76.6093 14.1277 39.4586 1.00788 26.7322 1C14.0057 0.992123 -24.1675 16.1461 26.7 76ZM26.0442 48.4331V69.6266H27.7641L30.516 66.5989V62.8985H28.4521V60.8801L30.516 59.8708V58.1888H29.4841V51.1243H30.516V45.4054C52.5312 36.3225 45.9955 9.41012 26.0442 9.41012C6.78093 10.7557 0.933148 36.3225 22.2604 45.4054V65.5897L25.0122 68.281V48.4331H26.0442Z" fill="url(#paint1_linear_220_971)"/>
<path fill-rule="evenodd" clip-rule="evenodd" d="M20.5404 36.6589C22.9483 33.2949 30.516 33.2949 32.924 36.6589H37.0518C37.8011 36.4662 36.88 35.1856 37.7398 35.3133C38.4277 35.3133 38.4277 34.9769 38.4277 34.6405V26.9032C38.4277 26.2304 37.0518 24.8847 37.0518 24.8847C36.7756 24.0562 39.1157 25.2212 39.4597 23.5391C39.8037 21.8571 39.4597 22.1935 38.4277 22.1935H37.0518C36.3638 22.1935 37.0518 23.5391 36.3638 23.5391H34.9879C34.9708 21.0085 33.8883 20.1165 32.236 19.8387H20.5404C18.4765 19.8387 18.4765 23.5391 18.4765 23.5391H17.1006C17.1006 23.5391 17.1006 22.1935 16.7566 22.1935H14.3487C13.6741 22.2163 13.9644 22.6385 14.0047 23.5391C14.0933 24.2423 14.506 24.6685 16.4126 24.5483C17.2149 24.8863 15.3806 26.2304 15.3806 26.9032V34.6405C15.3806 35.3133 15.3806 35.3133 16.0686 35.3133C16.7566 35.3133 16.1655 36.6011 16.7566 36.6589H20.5404ZM22.6043 30.6036V28.9216H30.516V30.6036H22.6043ZM21.2284 21.1843C20.5404 21.1843 19.1645 24.8847 19.8525 24.8847H33.6119C34.2999 24.8847 32.924 21.1843 32.236 21.1843H21.2284ZM21.2284 29.5944C20.8844 29.258 18.1325 26.9032 17.4445 26.9032C16.7566 26.9032 16.7566 27.576 16.7566 27.576V29.5944C16.7566 29.9308 16.7566 29.9308 17.7885 30.2672C18.8205 30.6036 20.8844 30.6036 21.2284 30.6036C21.5724 30.6036 21.5724 29.9308 21.2284 29.5944ZM32.236 29.5944C32.58 29.258 35.3319 26.9032 36.0198 26.9032C36.7078 26.9032 36.7078 27.576 36.7078 27.576V29.5944C36.7078 29.9308 36.7078 29.9308 35.6759 30.2672C34.6439 30.6036 32.58 30.6036 32.236 30.6036C31.892 30.6036 31.892 29.9308 32.236 29.5944Z" fill="white"/>
<path fill-rule="evenodd" clip-rule="evenodd" d="M20.5404 36.6589C22.9483 33.2949 30.516 33.2949 32.924 36.6589H37.0518C37.8011 36.4662 36.88 35.1856 37.7398 35.3133C38.4277 35.3133 38.4277 34.9769 38.4277 34.6405V26.9032C38.4277 26.2304 37.0518 24.8847 37.0518 24.8847C36.7756 24.0562 39.1157 25.2212 39.4597 23.5391C39.8037 21.8571 39.4597 22.1935 38.4277 22.1935H37.0518C36.3638 22.1935 37.0518 23.5391 36.3638 23.5391H34.9879C34.9708 21.0085 33.8883 20.1165 32.236 19.8387H20.5404C18.4765 19.8387 18.4765 23.5391 18.4765 23.5391H17.1006C17.1006 23.5391 17.1006 22.1935 16.7566 22.1935H14.3487C13.6741 22.2163 13.9644 22.6385 14.0047 23.5391C14.0933 24.2423 14.506 24.6685 16.4126 24.5483C17.2149 24.8863 15.3806 26.2304 15.3806 26.9032V34.6405C15.3806 35.3133 15.3806 35.3133 16.0686 35.3133C16.7566 35.3133 16.1655 36.6011 16.7566 36.6589H20.5404ZM22.6043 30.6036V28.9216H30.516V30.6036H22.6043ZM21.2284 21.1843C20.5404 21.1843 19.1645 24.8847 19.8525 24.8847H33.6119C34.2999 24.8847 32.924 21.1843 32.236 21.1843H21.2284ZM21.2284 29.5944C20.8844 29.258 18.1325 26.9032 17.4445 26.9032C16.7566 26.9032 16.7566 27.576 16.7566 27.576V29.5944C16.7566 29.9308 16.7566 29.9308 17.7885 30.2672C18.8205 30.6036 20.8844 30.6036 21.2284 30.6036C21.5724 30.6036 21.5724 29.9308 21.2284 29.5944ZM32.236 29.5944C32.58 29.258 35.3319 26.9032 36.0198 26.9032C36.7078 26.9032 36.7078 27.576 36.7078 27.576V29.5944C36.7078 29.9308 36.7078 29.9308 35.6759 30.2672C34.6439 30.6036 32.58 30.6036 32.236 30.6036C31.892 30.6036 31.892 29.9308 32.236 29.5944Z" fill="url(#paint2_linear_220_971)"/>
<path d="M19.8525 24.8847C19.1645 24.8847 20.5404 21.1843 21.2284 21.1843H32.236C32.924 21.1843 34.2999 24.8847 33.6119 24.8847H19.8525Z" fill="url(#paint3_linear_220_971)"/>
<path d="M19.8525 24.8847C19.1645 24.8847 20.5404 21.1843 21.2284 21.1843H32.236C32.924 21.1843 34.2999 24.8847 33.6119 24.8847H19.8525Z" fill="white"/>
<path d="M17.4445 26.9032C18.1325 26.9032 20.8844 29.258 21.2284 29.5944C21.5724 29.9308 21.5724 30.6036 21.2284 30.6036C20.8844 30.6036 18.8205 30.6036 17.7885 30.2672C16.7566 29.9308 16.7566 29.9308 16.7566 29.5944V27.576C16.7566 27.576 16.7566 26.9032 17.4445 26.9032Z" fill="url(#paint4_linear_220_971)"/>
<path d="M17.4445 26.9032C18.1325 26.9032 20.8844 29.258 21.2284 29.5944C21.5724 29.9308 21.5724 30.6036 21.2284 30.6036C20.8844 30.6036 18.8205 30.6036 17.7885 30.2672C16.7566 29.9308 16.7566 29.9308 16.7566 29.5944V27.576C16.7566 27.576 16.7566 26.9032 17.4445 26.9032Z" fill="white"/>
<path d="M22.6043 28.9216V30.6036H30.516V28.9216H22.6043Z" fill="url(#paint5_linear_220_971)"/>
<path d="M22.6043 28.9216V30.6036H30.516V28.9216H22.6043Z" fill="white"/>
<path d="M36.0198 26.9032C35.3319 26.9032 32.58 29.258 32.236 29.5944C31.892 29.9308 31.892 30.6036 32.236 30.6036C32.58 30.6036 34.6439 30.6036 35.6759 30.2672C36.7078 29.9308 36.7078 29.9308 36.7078 29.5944V27.576C36.7078 27.576 36.7078 26.9032 36.0198 26.9032Z" fill="url(#paint6_linear_220_971)"/>
<path d="M36.0198 26.9032C35.3319 26.9032 32.58 29.258 32.236 29.5944C31.892 29.9308 31.892 30.6036 32.236 30.6036C32.58 30.6036 34.6439 30.6036 35.6759 30.2672C36.7078 29.9308 36.7078 29.9308 36.7078 29.5944V27.576C36.7078 27.576 36.7078 26.9032 36.0198 26.9032Z" fill="white"/>
<path d="M20.5404 36.6589C22.9483 33.2949 30.516 33.2949 32.924 36.6589M20.5404 36.6589C20.5404 36.6589 17.1006 36.6589 16.7566 36.6589M20.5404 36.6589H16.7566M32.924 36.6589C32.924 36.6589 36.0198 36.6589 37.0518 36.6589M32.924 36.6589H37.0518M37.0518 36.6589C37.8011 36.4662 36.88 35.1856 37.7398 35.3133C38.4278 35.3133 38.4278 34.9769 38.4278 34.6405M38.4278 34.6405C38.4278 34.3041 38.4278 27.576 38.4278 26.9032M38.4278 34.6405V26.9032M38.4278 26.9032C38.4278 26.2304 37.0518 24.8847 37.0518 24.8847C36.7756 24.0562 39.1157 25.2212 39.4597 23.5391C39.8037 21.8571 39.4597 22.1935 38.4278 22.1935M38.4278 22.1935C37.3958 22.1935 37.7398 22.1935 37.0518 22.1935M38.4278 22.1935H37.0518M37.0518 22.1935C36.3638 22.1935 37.0518 23.5391 36.3638 23.5391M36.3638 23.5391C35.6759 23.5391 34.9879 23.5391 34.9879 23.5391M36.3638 23.5391H34.9879M34.9879 23.5391C34.9708 21.0085 33.8883 20.1165 32.236 19.8387M32.236 19.8387C32.236 19.8387 22.6044 19.8387 20.5404 19.8387M32.236 19.8387H20.5404M20.5404 19.8387C18.4765 19.8387 18.4765 23.5391 18.4765 23.5391H17.1006C17.1006 23.5391 17.1006 22.1935 16.7566 22.1935M16.7566 22.1935C16.4126 22.1935 14.3487 22.1935 14.3487 22.1935M16.7566 22.1935H14.3487M14.3487 22.1935C13.6741 22.2163 13.9644 22.6385 14.0047 23.5391C14.0933 24.2423 14.506 24.6685 16.4126 24.5483C17.2149 24.8863 15.3806 26.2304 15.3806 26.9032M15.3806 26.9032C15.3806 27.576 15.3806 33.9677 15.3806 34.6405M15.3806 26.9032V34.6405M15.3806 34.6405C15.3806 35.3133 15.3806 35.3133 16.0686 35.3133C16.7566 35.3133 16.1655 36.6011 16.7566 36.6589M19.8525 24.8847C19.1645 24.8847 20.5404 21.1843 21.2284 21.1843M19.8525 24.8847C20.5404 24.8847 32.924 24.8847 33.6119 24.8847M19.8525 24.8847H33.6119M21.2284 21.1843C21.9164 21.1843 31.548 21.1843 32.236 21.1843M21.2284 21.1843H32.236M32.236 21.1843C32.924 21.1843 34.2999 24.8847 33.6119 24.8847M16.7566 29.5944C16.7566 29.9308 16.7566 29.9308 17.7885 30.2672C18.8205 30.6036 20.8844 30.6036 21.2284 30.6036C21.5724 30.6036 21.5724 29.9308 21.2284 29.5944C20.8844 29.258 18.1325 26.9032 17.4445 26.9032C16.7566 26.9032 16.7566 27.576 16.7566 27.576M16.7566 29.5944C16.7566 29.258 16.7566 27.576 16.7566 27.576M16.7566 29.5944V27.576M26.7 76C76.6093 14.1277 39.4586 1.00788 26.7322 1C14.0057 0.992123 -24.1675 16.1461 26.7 76ZM26.0442 69.6266V48.4331H25.0122V68.281L22.2604 65.5897V45.4054C0.933148 36.3225 6.78093 10.7557 26.0442 9.41012C45.9955 9.41012 52.5312 36.3225 30.516 45.4054V51.1243H29.4841V58.1888H30.516V59.8708L28.4521 60.88V62.8985H30.516V66.5989L27.7641 69.6266H26.0442ZM22.6043 28.9216V30.6036H30.516V28.9216H22.6043ZM36.0198 26.9032C35.3319 26.9032 32.58 29.258 32.236 29.5944C31.892 29.9308 31.892 30.6036 32.236 30.6036C32.58 30.6036 34.6439 30.6036 35.6759 30.2672C36.7078 29.9308 36.7078 29.9308 36.7078 29.5944V27.576C36.7078 27.576 36.7078 26.9032 36.0198 26.9032Z" stroke="url(#paint7_linear_220_971)" stroke-width="0.499119"/>
<path d="M72.65 48L79.072 31.256H84.246L90.668 48H85.572L84.168 44.438H79.124L77.746 48H72.65ZM79.774 40.928H83.518L81.646 36.014L79.774 40.928ZM95.3982 48L88.9762 31.256H94.0722L97.9722 42.332L101.872 31.256H106.994L100.572 48H95.3982ZM112.484 48V34.896H107.778V31.256H122.078V34.896H117.372V48H112.484ZM131.147 48.26C128.374 48.26 126.251 47.584 124.777 46.232C123.321 44.88 122.593 42.696 122.593 39.68C122.593 37.6 122.923 35.9273 123.581 34.662C124.24 33.3793 125.202 32.452 126.467 31.88C127.75 31.2907 129.31 30.996 131.147 30.996C132.985 30.996 134.536 31.2907 135.801 31.88C137.084 32.452 138.055 33.3793 138.713 34.662C139.372 35.9273 139.701 37.6 139.701 39.68C139.701 42.696 138.965 44.88 137.491 46.232C136.018 47.584 133.903 48.26 131.147 48.26ZM131.147 44.1C132.395 44.1 133.297 43.7533 133.851 43.06C134.423 42.3493 134.709 41.2227 134.709 39.68C134.709 38.0333 134.423 36.872 133.851 36.196C133.297 35.5027 132.395 35.156 131.147 35.156C129.899 35.156 128.989 35.5027 128.417 36.196C127.863 36.872 127.585 38.0333 127.585 39.68C127.585 41.2227 127.863 42.3493 128.417 43.06C128.989 43.7533 129.899 44.1 131.147 44.1ZM146.854 48V31.256H155.486C156.855 31.256 157.982 31.5333 158.866 32.088C159.767 32.6253 160.434 33.362 160.868 34.298C161.301 35.234 161.518 36.274 161.518 37.418C161.518 38.5967 161.266 39.6453 160.764 40.564C160.261 41.4827 159.55 42.202 158.632 42.722C157.713 43.242 156.63 43.502 155.382 43.502H151.742V48H146.854ZM151.742 39.758H154.264C155.026 39.758 155.59 39.5413 155.954 39.108C156.335 38.6747 156.526 38.1113 156.526 37.418C156.526 36.6727 156.352 36.0833 156.006 35.65C155.659 35.2167 155.122 35 154.394 35H151.742V39.758ZM170.858 48.26C168.085 48.26 165.962 47.584 164.488 46.232C163.032 44.88 162.304 42.696 162.304 39.68C162.304 37.6 162.634 35.9273 163.292 34.662C163.951 33.3793 164.913 32.452 166.178 31.88C167.461 31.2907 169.021 30.996 170.858 30.996C172.696 30.996 174.247 31.2907 175.512 31.88C176.795 32.452 177.766 33.3793 178.424 34.662C179.083 35.9273 179.412 37.6 179.412 39.68C179.412 42.696 178.676 44.88 177.202 46.232C175.729 47.584 173.614 48.26 170.858 48.26ZM170.858 44.1C172.106 44.1 173.008 43.7533 173.562 43.06C174.134 42.3493 174.42 41.2227 174.42 39.68C174.42 38.0333 174.134 36.872 173.562 36.196C173.008 35.5027 172.106 35.156 170.858 35.156C169.61 35.156 168.7 35.5027 168.128 36.196C167.574 36.872 167.296 38.0333 167.296 39.68C167.296 41.2227 167.574 42.3493 168.128 43.06C168.7 43.7533 169.61 44.1 170.858 44.1ZM181.233 48V31.256H188.721C190.437 31.256 191.901 31.542 193.115 32.114C194.328 32.6687 195.255 33.57 195.897 34.818C196.538 36.0487 196.859 37.6867 196.859 39.732C196.859 42.6093 196.157 44.7067 194.752 46.024C193.349 47.3413 191.338 48 188.721 48H181.233ZM186.121 44.256H188.097C188.911 44.256 189.596 44.1433 190.151 43.918C190.705 43.6753 191.13 43.2333 191.425 42.592C191.719 41.9333 191.867 40.98 191.867 39.732C191.867 38.484 191.728 37.522 191.451 36.846C191.191 36.1527 190.783 35.676 190.229 35.416C189.674 35.1387 188.963 35 188.097 35H186.121V44.256ZM198.676 48V31.256H207.88C209.579 31.256 210.87 31.6547 211.754 32.452C212.638 33.2493 213.08 34.3933 213.08 35.884C213.08 36.7507 212.915 37.4787 212.586 38.068C212.274 38.6573 211.858 39.1253 211.338 39.472C212.049 39.7493 212.612 40.1567 213.028 40.694C213.461 41.214 213.678 41.994 213.678 43.034C213.678 44.6113 213.193 45.8333 212.222 46.7C211.251 47.5667 209.873 48 208.088 48H198.676ZM203.382 37.938H206.554C207.75 37.938 208.348 37.4007 208.348 36.326C208.348 35.7887 208.201 35.3813 207.906 35.104C207.629 34.8267 207.135 34.688 206.424 34.688H203.382V37.938ZM203.382 44.594H206.762C207.421 44.594 207.906 44.4553 208.218 44.178C208.53 43.9007 208.686 43.4413 208.686 42.8C208.686 42.2627 208.53 41.8553 208.218 41.578C207.906 41.3007 207.386 41.162 206.658 41.162H203.382V44.594ZM223.544 48.26C220.771 48.26 218.647 47.584 217.174 46.232C215.718 44.88 214.99 42.696 214.99 39.68C214.99 37.6 215.319 35.9273 215.978 34.662C216.637 33.3793 217.599 32.452 218.864 31.88C220.147 31.2907 221.707 30.996 223.544 30.996C225.381 30.996 226.933 31.2907 228.198 31.88C229.481 32.452 230.451 33.3793 231.11 34.662C231.769 35.9273 232.098 37.6 232.098 39.68C232.098 42.696 231.361 44.88 229.888 46.232C228.415 47.584 226.3 48.26 223.544 48.26ZM223.544 44.1C224.792 44.1 225.693 43.7533 226.248 43.06C226.82 42.3493 227.106 41.2227 227.106 39.68C227.106 38.0333 226.82 36.872 226.248 36.196C225.693 35.5027 224.792 35.156 223.544 35.156C222.296 35.156 221.386 35.5027 220.814 36.196C220.259 36.872 219.982 38.0333 219.982 39.68C219.982 41.2227 220.259 42.3493 220.814 43.06C221.386 43.7533 222.296 44.1 223.544 44.1ZM233.918 48V31.256H242.628C243.997 31.256 245.115 31.5073 245.982 32.01C246.866 32.5127 247.525 33.2147 247.958 34.116C248.391 35 248.608 36.0313 248.608 37.21C248.608 38.3367 248.322 39.3333 247.75 40.2C247.195 41.0493 246.45 41.6993 245.514 42.15C245.705 42.306 245.869 42.4967 246.008 42.722C246.147 42.93 246.303 43.2247 246.476 43.606L248.4 48H243.304L241.536 43.97C241.397 43.658 241.224 43.4413 241.016 43.32C240.825 43.1813 240.548 43.112 240.184 43.112H238.806V48H233.918ZM238.806 39.368H241.38C242.091 39.368 242.637 39.186 243.018 38.822C243.417 38.4407 243.616 37.9033 243.616 37.21C243.616 35.7367 242.923 35 241.536 35H238.806V39.368ZM255.754 48V31.256H264.386C265.755 31.256 266.882 31.5333 267.766 32.088C268.667 32.6253 269.335 33.362 269.768 34.298C270.201 35.234 270.418 36.274 270.418 37.418C270.418 38.5967 270.167 39.6453 269.664 40.564C269.161 41.4827 268.451 42.202 267.532 42.722C266.613 43.242 265.53 43.502 264.282 43.502H260.642V48H255.754ZM260.642 39.758H263.164C263.927 39.758 264.49 39.5413 264.854 39.108C265.235 38.6747 265.426 38.1113 265.426 37.418C265.426 36.6727 265.253 36.0833 264.906 35.65C264.559 35.2167 264.022 35 263.294 35H260.642V39.758ZM271.725 48V31.256H280.435C281.804 31.256 282.922 31.5073 283.789 32.01C284.673 32.5127 285.331 33.2147 285.765 34.116C286.198 35 286.415 36.0313 286.415 37.21C286.415 38.3367 286.129 39.3333 285.557 40.2C285.002 41.0493 284.257 41.6993 283.321 42.15C283.511 42.306 283.676 42.4967 283.815 42.722C283.953 42.93 284.109 43.2247 284.283 43.606L286.207 48H281.111L279.343 43.97C279.204 43.658 279.031 43.4413 278.823 43.32C278.632 43.1813 278.355 43.112 277.991 43.112H276.613V48H271.725ZM276.613 39.368H279.187C279.897 39.368 280.443 39.186 280.825 38.822C281.223 38.4407 281.423 37.9033 281.423 37.21C281.423 35.7367 280.729 35 279.343 35H276.613V39.368ZM295.882 48.26C293.108 48.26 290.985 47.584 289.512 46.232C288.056 44.88 287.328 42.696 287.328 39.68C287.328 37.6 287.657 35.9273 288.316 34.662C288.974 33.3793 289.936 32.452 291.202 31.88C292.484 31.2907 294.044 30.996 295.882 30.996C297.719 30.996 299.27 31.2907 300.536 31.88C301.818 32.452 302.789 33.3793 303.448 34.662C304.106 35.9273 304.436 37.6 304.436 39.68C304.436 42.696 303.699 44.88 302.226 46.232C300.752 47.584 298.638 48.26 295.882 48.26ZM295.882 44.1C297.13 44.1 298.031 43.7533 298.586 43.06C299.158 42.3493 299.444 41.2227 299.444 39.68C299.444 38.0333 299.158 36.872 298.586 36.196C298.031 35.5027 297.13 35.156 295.882 35.156C294.634 35.156 293.724 35.5027 293.152 36.196C292.597 36.872 292.32 38.0333 292.32 39.68C292.32 41.2227 292.597 42.3493 293.152 43.06C293.724 43.7533 294.634 44.1 295.882 44.1Z" fill="white"/>
<path d="M72.65 48L79.072 31.256H84.246L90.668 48H85.572L84.168 44.438H79.124L77.746 48H72.65ZM79.774 40.928H83.518L81.646 36.014L79.774 40.928ZM95.3982 48L88.9762 31.256H94.0722L97.9722 42.332L101.872 31.256H106.994L100.572 48H95.3982ZM112.484 48V34.896H107.778V31.256H122.078V34.896H117.372V48H112.484ZM131.147 48.26C128.374 48.26 126.251 47.584 124.777 46.232C123.321 44.88 122.593 42.696 122.593 39.68C122.593 37.6 122.923 35.9273 123.581 34.662C124.24 33.3793 125.202 32.452 126.467 31.88C127.75 31.2907 129.31 30.996 131.147 30.996C132.985 30.996 134.536 31.2907 135.801 31.88C137.084 32.452 138.055 33.3793 138.713 34.662C139.372 35.9273 139.701 37.6 139.701 39.68C139.701 42.696 138.965 44.88 137.491 46.232C136.018 47.584 133.903 48.26 131.147 48.26ZM131.147 44.1C132.395 44.1 133.297 43.7533 133.851 43.06C134.423 42.3493 134.709 41.2227 134.709 39.68C134.709 38.0333 134.423 36.872 133.851 36.196C133.297 35.5027 132.395 35.156 131.147 35.156C129.899 35.156 128.989 35.5027 128.417 36.196C127.863 36.872 127.585 38.0333 127.585 39.68C127.585 41.2227 127.863 42.3493 128.417 43.06C128.989 43.7533 129.899 44.1 131.147 44.1ZM146.854 48V31.256H155.486C156.855 31.256 157.982 31.5333 158.866 32.088C159.767 32.6253 160.434 33.362 160.868 34.298C161.301 35.234 161.518 36.274 161.518 37.418C161.518 38.5967 161.266 39.6453 160.764 40.564C160.261 41.4827 159.55 42.202 158.632 42.722C157.713 43.242 156.63 43.502 155.382 43.502H151.742V48H146.854ZM151.742 39.758H154.264C155.026 39.758 155.59 39.5413 155.954 39.108C156.335 38.6747 156.526 38.1113 156.526 37.418C156.526 36.6727 156.352 36.0833 156.006 35.65C155.659 35.2167 155.122 35 154.394 35H151.742V39.758ZM170.858 48.26C168.085 48.26 165.962 47.584 164.488 46.232C163.032 44.88 162.304 42.696 162.304 39.68C162.304 37.6 162.634 35.9273 163.292 34.662C163.951 33.3793 164.913 32.452 166.178 31.88C167.461 31.2907 169.021 30.996 170.858 30.996C172.696 30.996 174.247 31.2907 175.512 31.88C176.795 32.452 177.766 33.3793 178.424 34.662C179.083 35.9273 179.412 37.6 179.412 39.68C179.412 42.696 178.676 44.88 177.202 46.232C175.729 47.584 173.614 48.26 170.858 48.26ZM170.858 44.1C172.106 44.1 173.008 43.7533 173.562 43.06C174.134 42.3493 174.42 41.2227 174.42 39.68C174.42 38.0333 174.134 36.872 173.562 36.196C173.008 35.5027 172.106 35.156 170.858 35.156C169.61 35.156 168.7 35.5027 168.128 36.196C167.574 36.872 167.296 38.0333 167.296 39.68C167.296 41.2227 167.574 42.3493 168.128 43.06C168.7 43.7533 169.61 44.1 170.858 44.1ZM181.233 48V31.256H188.721C190.437 31.256 191.901 31.542 193.115 32.114C194.328 32.6687 195.255 33.57 195.897 34.818C196.538 36.0487 196.859 37.6867 196.859 39.732C196.859 42.6093 196.157 44.7067 194.752 46.024C193.349 47.3413 191.338 48 188.721 48H181.233ZM186.121 44.256H188.097C188.911 44.256 189.596 44.1433 190.151 43.918C190.705 43.6753 191.13 43.2333 191.425 42.592C191.719 41.9333 191.867 40.98 191.867 39.732C191.867 38.484 191.728 37.522 191.451 36.846C191.191 36.1527 190.783 35.676 190.229 35.416C189.674 35.1387 188.963 35 188.097 35H186.121V44.256ZM198.676 48V31.256H207.88C209.579 31.256 210.87 31.6547 211.754 32.452C212.638 33.2493 213.08 34.3933 213.08 35.884C213.08 36.7507 212.915 37.4787 212.586 38.068C212.274 38.6573 211.858 39.1253 211.338 39.472C212.049 39.7493 212.612 40.1567 213.028 40.694C213.461 41.214 213.678 41.994 213.678 43.034C213.678 44.6113 213.193 45.8333 212.222 46.7C211.251 47.5667 209.873 48 208.088 48H198.676ZM203.382 37.938H206.554C207.75 37.938 208.348 37.4007 208.348 36.326C208.348 35.7887 208.201 35.3813 207.906 35.104C207.629 34.8267 207.135 34.688 206.424 34.688H203.382V37.938ZM203.382 44.594H206.762C207.421 44.594 207.906 44.4553 208.218 44.178C208.53 43.9007 208.686 43.4413 208.686 42.8C208.686 42.2627 208.53 41.8553 208.218 41.578C207.906 41.3007 207.386 41.162 206.658 41.162H203.382V44.594ZM223.544 48.26C220.771 48.26 218.647 47.584 217.174 46.232C215.718 44.88 214.99 42.696 214.99 39.68C214.99 37.6 215.319 35.9273 215.978 34.662C216.637 33.3793 217.599 32.452 218.864 31.88C220.147 31.2907 221.707 30.996 223.544 30.996C225.381 30.996 226.933 31.2907 228.198 31.88C229.481 32.452 230.451 33.3793 231.11 34.662C231.769 35.9273 232.098 37.6 232.098 39.68C232.098 42.696 231.361 44.88 229.888 46.232C228.415 47.584 226.3 48.26 223.544 48.26ZM223.544 44.1C224.792 44.1 225.693 43.7533 226.248 43.06C226.82 42.3493 227.106 41.2227 227.106 39.68C227.106 38.0333 226.82 36.872 226.248 36.196C225.693 35.5027 224.792 35.156 223.544 35.156C222.296 35.156 221.386 35.5027 220.814 36.196C220.259 36.872 219.982 38.0333 219.982 39.68C219.982 41.2227 220.259 42.3493 220.814 43.06C221.386 43.7533 222.296 44.1 223.544 44.1ZM233.918 48V31.256H242.628C243.997 31.256 245.115 31.5073 245.982 32.01C246.866 32.5127 247.525 33.2147 247.958 34.116C248.391 35 248.608 36.0313 248.608 37.21C248.608 38.3367 248.322 39.3333 247.75 40.2C247.195 41.0493 246.45 41.6993 245.514 42.15C245.705 42.306 245.869 42.4967 246.008 42.722C246.147 42.93 246.303 43.2247 246.476 43.606L248.4 48H243.304L241.536 43.97C241.397 43.658 241.224 43.4413 241.016 43.32C240.825 43.1813 240.548 43.112 240.184 43.112H238.806V48H233.918ZM238.806 39.368H241.38C242.091 39.368 242.637 39.186 243.018 38.822C243.417 38.4407 243.616 37.9033 243.616 37.21C243.616 35.7367 242.923 35 241.536 35H238.806V39.368ZM255.754 48V31.256H264.386C265.755 31.256 266.882 31.5333 267.766 32.088C268.667 32.6253 269.335 33.362 269.768 34.298C270.201 35.234 270.418 36.274 270.418 37.418C270.418 38.5967 270.167 39.6453 269.664 40.564C269.161 41.4827 268.451 42.202 267.532 42.722C266.613 43.242 265.53 43.502 264.282 43.502H260.642V48H255.754ZM260.642 39.758H263.164C263.927 39.758 264.49 39.5413 264.854 39.108C265.235 38.6747 265.426 38.1113 265.426 37.418C265.426 36.6727 265.253 36.0833 264.906 35.65C264.559 35.2167 264.022 35 263.294 35H260.642V39.758ZM271.725 48V31.256H280.435C281.804 31.256 282.922 31.5073 283.789 32.01C284.673 32.5127 285.331 33.2147 285.765 34.116C286.198 35 286.415 36.0313 286.415 37.21C286.415 38.3367 286.129 39.3333 285.557 40.2C285.002 41.0493 284.257 41.6993 283.321 42.15C283.511 42.306 283.676 42.4967 283.815 42.722C283.953 42.93 284.109 43.2247 284.283 43.606L286.207 48H281.111L279.343 43.97C279.204 43.658 279.031 43.4413 278.823 43.32C278.632 43.1813 278.355 43.112 277.991 43.112H276.613V48H271.725ZM276.613 39.368H279.187C279.897 39.368 280.443 39.186 280.825 38.822C281.223 38.4407 281.423 37.9033 281.423 37.21C281.423 35.7367 280.729 35 279.343 35H276.613V39.368ZM295.882 48.26C293.108 48.26 290.985 47.584 289.512 46.232C288.056 44.88 287.328 42.696 287.328 39.68C287.328 37.6 287.657 35.9273 288.316 34.662C288.974 33.3793 289.936 32.452 291.202 31.88C292.484 31.2907 294.044 30.996 295.882 30.996C297.719 30.996 299.27 31.2907 300.536 31.88C301.818 32.452 302.789 33.3793 303.448 34.662C304.106 35.9273 304.436 37.6 304.436 39.68C304.436 42.696 303.699 44.88 302.226 46.232C300.752 47.584 298.638 48.26 295.882 48.26ZM295.882 44.1C297.13 44.1 298.031 43.7533 298.586 43.06C299.158 42.3493 299.444 41.2227 299.444 39.68C299.444 38.0333 299.158 36.872 298.586 36.196C298.031 35.5027 297.13 35.156 295.882 35.156C294.634 35.156 293.724 35.5027 293.152 36.196C292.597 36.872 292.32 38.0333 292.32 39.68C292.32 41.2227 292.597 42.3493 293.152 43.06C293.724 43.7533 294.634 44.1 295.882 44.1Z" fill="url(#paint8_linear_220_971)"/>
<defs>
<linearGradient id="paint0_linear_220_971" x1="52" y1="38.5" x2="1" y2="38.5" gradientUnits="userSpaceOnUse">
<stop stop-color="#5BA4FA"/>
<stop offset="1" stop-color="#0788FF"/>
</linearGradient>
<linearGradient id="paint1_linear_220_971" x1="52" y1="38.5" x2="1" y2="38.5" gradientUnits="userSpaceOnUse">
<stop stop-color="#5BA4FA"/>
<stop offset="1" stop-color="#0788FF"/>
</linearGradient>
<linearGradient id="paint2_linear_220_971" x1="52" y1="38.5" x2="1" y2="38.5" gradientUnits="userSpaceOnUse">
<stop stop-color="#5BA4FA"/>
<stop offset="1" stop-color="#0788FF"/>
</linearGradient>
<linearGradient id="paint3_linear_220_971" x1="52" y1="38.5" x2="1" y2="38.5" gradientUnits="userSpaceOnUse">
<stop stop-color="#5BA4FA"/>
<stop offset="1" stop-color="#0788FF"/>
</linearGradient>
<linearGradient id="paint4_linear_220_971" x1="52" y1="38.5" x2="1" y2="38.5" gradientUnits="userSpaceOnUse">
<stop stop-color="#5BA4FA"/>
<stop offset="1" stop-color="#0788FF"/>
</linearGradient>
<linearGradient id="paint5_linear_220_971" x1="52" y1="38.5" x2="1" y2="38.5" gradientUnits="userSpaceOnUse">
<stop stop-color="#5BA4FA"/>
<stop offset="1" stop-color="#0788FF"/>
</linearGradient>
<linearGradient id="paint6_linear_220_971" x1="52" y1="38.5" x2="1" y2="38.5" gradientUnits="userSpaceOnUse">
<stop stop-color="#5BA4FA"/>
<stop offset="1" stop-color="#0788FF"/>
</linearGradient>
<linearGradient id="paint7_linear_220_971" x1="52" y1="38.5" x2="1" y2="38.5" gradientUnits="userSpaceOnUse">
<stop stop-color="#5BA4FA"/>
<stop offset="1" stop-color="#0788FF"/>
</linearGradient>
<linearGradient id="paint8_linear_220_971" x1="306" y1="38.5" x2="72" y2="38.5" gradientUnits="userSpaceOnUse">
<stop stop-color="#5BA4FA"/>
<stop offset="1" stop-color="#0788FF"/>
</linearGradient>
</defs>
</svg>
