<svg width="65" height="65" viewBox="0 0 65 65" fill="none" xmlns="http://www.w3.org/2000/svg">
<path d="M28.3613 2.69141C28.0059 2.79297 27.498 2.99609 27.2441 3.14844C26.5332 3.58008 25.6191 4.62109 25.2891 5.4082L25.0098 6.09375L24.9844 21.1758L24.959 36.2578L21.709 36.2832C18.6621 36.3086 18.4336 36.334 17.9004 36.5879C17.1387 36.9434 16.3516 37.7051 15.9707 38.4922L15.6406 39.1523V42.834V46.5156L15.9707 47.2012C16.4023 48.0137 17.0117 48.5977 17.9004 49.0293C18.5605 49.334 18.5859 49.334 21.7344 49.3594L24.9336 49.3848L24.959 54.1582C24.9844 58.8809 24.9844 58.9316 25.2637 59.6426C25.6445 60.6074 26.8125 61.7754 27.8027 62.1816C28.4883 62.4609 28.5645 62.4609 32.4238 62.4609C36.3086 62.4609 36.3594 62.4609 37.0449 62.1816C38.0098 61.8008 39.1777 60.6328 39.584 59.6426C39.8633 58.957 39.8633 58.8809 39.8887 54.1582L39.9141 49.3848L43.1133 49.3594L46.3125 49.334L47.0742 48.9531C47.9375 48.5215 48.5215 47.9375 48.9531 47.0742C49.2324 46.541 49.2324 46.4648 49.2324 42.834V39.1523L48.9023 38.4922C48.5215 37.7305 47.7344 36.9434 46.9727 36.5879C46.4648 36.334 46.2109 36.334 43.1641 36.2832L39.9141 36.2578L39.8887 21.1758V6.09375L39.6094 5.38281C39.2285 4.41797 38.0605 3.25 37.0703 2.84375C36.3848 2.56445 36.2578 2.56445 32.6777 2.53906C29.707 2.51367 28.8691 2.56445 28.3613 2.69141ZM35.9277 6.52539L36.207 6.7793V21.5313V36.2832H35.2676H34.3281V30.4941C34.3281 25.1367 34.3027 24.7051 34.0996 24.2481C33.7695 23.5371 33.2363 23.207 32.4238 23.207C31.7129 23.207 31.332 23.4102 30.875 24.0195C30.6465 24.3242 30.6211 24.4766 30.5957 30.3164L30.5703 36.2832H29.6563H28.6914V21.5566V6.83008L28.9453 6.55078C29.1992 6.27148 29.1992 6.27148 32.4238 6.27148C35.5723 6.27148 35.6738 6.27148 35.9277 6.52539ZM45.2969 38.4414C45.4746 38.6191 45.6016 38.873 45.6016 39.0762C45.6016 39.3047 45.5 39.5332 45.2969 39.7109L45.0176 40.0156H32.4746H19.9063L19.627 39.7109C19.4492 39.5332 19.3223 39.2793 19.3223 39.0762C19.3223 38.8477 19.4238 38.6191 19.627 38.4414L19.9063 38.1367H32.4492H44.9922L45.2969 38.4414ZM36.207 53.8027C36.207 58.1699 36.207 58.2207 35.9531 58.5C35.6992 58.7793 35.6992 58.7793 32.4746 58.7793C29.3262 58.7793 29.25 58.7793 28.9707 58.5254L28.6914 58.2715V53.8281V49.4102H32.4492H36.207V53.8027Z" fill="white"/>
<path d="M43.6973 11.8828V15.6406L44.4844 15.6152L45.2715 15.5898L45.2969 14.3203L45.3223 13.0762H45.9063C46.2363 13.0762 46.8457 13.0254 47.3027 12.9492C47.9375 12.8477 48.1914 12.7461 48.4707 12.4668C49.4609 11.502 49.5371 10.0293 48.6738 9.01367C48.0391 8.27734 47.6074 8.15039 45.5254 8.15039H43.6719L43.6973 11.8828ZM47.4551 10.0039C47.7344 10.2832 47.7598 10.918 47.4805 11.1973C47.3281 11.375 47.125 11.4004 46.3125 11.4004H45.3477V10.5879V9.77539H46.2871C47.0742 9.77539 47.252 9.80078 47.4551 10.0039Z" fill="white"/>
<path d="M43.6973 26.8887V30.6465L44.4844 30.6211L45.2715 30.5957L45.2969 29.3262L45.3223 28.082H45.8301C46.2871 28.082 46.3887 28.1328 46.8203 28.6152C47.3789 29.2246 47.6582 29.7832 47.6582 30.291V30.6465H48.4961H49.334L49.2578 30.0371C49.1562 29.25 48.9531 28.793 48.4961 28.2598L48.1152 27.8281L48.4707 27.498C49.791 26.2793 49.4863 24.0957 47.8613 23.3848C47.4805 23.207 47.0742 23.1562 45.5508 23.1562H43.6973V26.8887ZM47.4551 25.0098C47.7344 25.2891 47.7598 25.9238 47.4805 26.2031C47.3281 26.3809 47.125 26.4063 46.3125 26.4063H45.3477V25.5938V24.7813H46.2871C47.0742 24.7813 47.252 24.8066 47.4551 25.0098Z" fill="white"/>
<path d="M43.6973 56.9004V60.6582H44.6367H45.5762V58.8047V56.9766L46.5156 58.8047L47.4297 60.6582H48.3691H49.3086V56.9004V53.1426H48.3691H47.4297V54.9707V56.8242L46.4902 54.9707L45.5762 53.1426H44.6367H43.6973V56.9004Z" fill="white"/>
</svg>
