<svg width="125" height="125" viewBox="0 0 125 125" fill="none" xmlns="http://www.w3.org/2000/svg">
<rect width="125" height="125" rx="25" fill="#D9D9D9"/>
<rect width="125" height="125" rx="25" fill="url(#paint0_linear_329_507)"/>
<path d="M58.3613 32.6914C58.0059 32.793 57.498 32.9961 57.2441 33.1484C56.5332 33.5801 55.6191 34.6211 55.2891 35.4082L55.0098 36.0938L54.9844 51.1758L54.959 66.2578L51.709 66.2832C48.6621 66.3086 48.4336 66.334 47.9004 66.5879C47.1387 66.9434 46.3516 67.7051 45.9707 68.4922L45.6406 69.1523V72.834V76.5156L45.9707 77.2012C46.4023 78.0137 47.0117 78.5977 47.9004 79.0293C48.5605 79.334 48.5859 79.334 51.7344 79.3594L54.9336 79.3848L54.959 84.1582C54.9844 88.8809 54.9844 88.9316 55.2637 89.6426C55.6445 90.6074 56.8125 91.7754 57.8027 92.1816C58.4883 92.4609 58.5645 92.4609 62.4238 92.4609C66.3086 92.4609 66.3594 92.4609 67.0449 92.1816C68.0098 91.8008 69.1777 90.6328 69.584 89.6426C69.8633 88.957 69.8633 88.8809 69.8887 84.1582L69.9141 79.3848L73.1133 79.3594L76.3125 79.334L77.0742 78.9531C77.9375 78.5215 78.5215 77.9375 78.9531 77.0742C79.2324 76.541 79.2324 76.4648 79.2324 72.834V69.1523L78.9023 68.4922C78.5215 67.7305 77.7344 66.9434 76.9727 66.5879C76.4648 66.334 76.2109 66.334 73.1641 66.2832L69.9141 66.2578L69.8887 51.1758V36.0938L69.6094 35.3828C69.2285 34.418 68.0605 33.25 67.0703 32.8437C66.3848 32.5645 66.2578 32.5645 62.6777 32.5391C59.707 32.5137 58.8691 32.5645 58.3613 32.6914ZM65.9277 36.5254L66.207 36.7793V51.5313V66.2832H65.2676H64.3281V60.4941C64.3281 55.1367 64.3027 54.7051 64.0996 54.2481C63.7695 53.5371 63.2363 53.207 62.4238 53.207C61.7129 53.207 61.332 53.4102 60.875 54.0195C60.6465 54.3242 60.6211 54.4766 60.5957 60.3164L60.5703 66.2832H59.6563H58.6914V51.5566V36.8301L58.9453 36.5508C59.1992 36.2715 59.1992 36.2715 62.4238 36.2715C65.5723 36.2715 65.6738 36.2715 65.9277 36.5254ZM75.2969 68.4414C75.4746 68.6191 75.6016 68.873 75.6016 69.0762C75.6016 69.3047 75.5 69.5332 75.2969 69.7109L75.0176 70.0156H62.4746H49.9063L49.627 69.7109C49.4492 69.5332 49.3223 69.2793 49.3223 69.0762C49.3223 68.8477 49.4238 68.6191 49.627 68.4414L49.9063 68.1367H62.4492H74.9922L75.2969 68.4414ZM66.207 83.8027C66.207 88.1699 66.207 88.2207 65.9531 88.5C65.6992 88.7793 65.6992 88.7793 62.4746 88.7793C59.3262 88.7793 59.25 88.7793 58.9707 88.5254L58.6914 88.2715V83.8281V79.4102H62.4492H66.207V83.8027Z" fill="white"/>
<path d="M73.6973 41.8828V45.6406L74.4844 45.6152L75.2715 45.5898L75.2969 44.3203L75.3223 43.0762H75.9063C76.2363 43.0762 76.8457 43.0254 77.3027 42.9492C77.9375 42.8477 78.1914 42.7461 78.4707 42.4668C79.4609 41.502 79.5371 40.0293 78.6738 39.0137C78.0391 38.2773 77.6074 38.1504 75.5254 38.1504H73.6719L73.6973 41.8828ZM77.4551 40.0039C77.7344 40.2832 77.7598 40.918 77.4805 41.1973C77.3281 41.375 77.125 41.4004 76.3125 41.4004H75.3477V40.5879V39.7754H76.2871C77.0742 39.7754 77.252 39.8008 77.4551 40.0039Z" fill="white"/>
<path d="M73.6973 56.8887V60.6465L74.4844 60.6211L75.2715 60.5957L75.2969 59.3262L75.3223 58.082H75.8301C76.2871 58.082 76.3887 58.1328 76.8203 58.6152C77.3789 59.2246 77.6582 59.7832 77.6582 60.291V60.6465H78.4961H79.334L79.2578 60.0371C79.1562 59.25 78.9531 58.793 78.4961 58.2598L78.1152 57.8281L78.4707 57.498C79.791 56.2793 79.4863 54.0957 77.8613 53.3848C77.4805 53.207 77.0742 53.1562 75.5508 53.1562H73.6973V56.8887ZM77.4551 55.0098C77.7344 55.2891 77.7598 55.9238 77.4805 56.2031C77.3281 56.3809 77.125 56.4063 76.3125 56.4063H75.3477V55.5938V54.7813H76.2871C77.0742 54.7813 77.252 54.8066 77.4551 55.0098Z" fill="white"/>
<path d="M73.6973 86.9004V90.6582H74.6367H75.5762V88.8047V86.9766L76.5156 88.8047L77.4297 90.6582H78.3691H79.3086V86.9004V83.1426H78.3691H77.4297V84.9707V86.8242L76.4902 84.9707L75.5762 83.1426H74.6367H73.6973V86.9004Z" fill="white"/>
<defs>
<linearGradient id="paint0_linear_329_507" x1="125" y1="62.5" x2="0" y2="62.5" gradientUnits="userSpaceOnUse">
<stop stop-color="#5BA4FA"/>
<stop offset="1" stop-color="#0788FF"/>
</linearGradient>
</defs>
</svg>
