<svg width="125" height="126" viewBox="0 0 125 126" fill="none" xmlns="http://www.w3.org/2000/svg">
<rect y="0.5" width="125" height="125" rx="25" fill="#D9D9D9"/>
<rect y="0.5" width="125" height="125" rx="25" fill="url(#paint0_linear_329_525)"/>
<path d="M67.9535 52.5045C64.7284 52.5448 61.5025 52.8827 58.7908 53.1489C58.7687 53.1484 58.7466 53.1484 58.7245 53.1489C54.4023 53.7371 49.696 56.6284 45.963 58.8411C45.2038 58.952 44.4263 59.0801 43.6226 59.2277C40.2108 59.8544 37.1317 60.6782 34.8353 61.5476C33.687 61.9822 32.7375 62.4161 31.9871 62.9008C31.6119 63.1432 31.2831 63.3868 30.9935 63.717C30.704 64.0473 30.3974 64.5116 30.3974 65.1347V65.9724C30.155 66.2954 30 66.6859 30 67.1109V72.5238C30 73.6007 30.9455 74.4999 32.0313 74.4999H38.1692C38.3727 74.5019 38.5742 74.461 38.76 74.3802C38.9458 74.2993 39.1115 74.1804 39.2457 74.0315C39.3799 73.8826 39.4794 73.7073 39.5375 73.5175C39.5956 73.3277 39.6108 73.128 39.5822 72.9319C39.5595 72.7781 39.5394 72.6148 39.538 72.4593C39.5381 71.5502 39.9395 70.5963 40.6199 69.9462C41.3004 69.296 42.3189 68.8937 43.2914 68.8937C44.2639 68.8937 45.2825 69.296 45.963 69.9462C46.6434 70.5963 47.0448 71.5502 47.0448 72.4593C47.0433 72.6148 47.0456 72.7567 47.0228 72.9104C46.9909 73.1063 47.003 73.3065 47.0582 73.4974C47.1134 73.6883 47.2104 73.8653 47.3426 74.0163C47.4747 74.1673 47.6388 74.2887 47.8237 74.3722C48.0086 74.4557 48.2099 74.4992 48.4137 74.4999H75.681C75.8827 74.4988 76.0818 74.4557 76.2649 74.3735C76.448 74.2913 76.6109 74.1719 76.7427 74.0234C76.8745 73.8748 76.972 73.7006 77.0288 73.5123C77.0856 73.3241 77.1004 73.1262 77.072 72.9319C77.0493 72.7781 77.0513 72.6148 77.0499 72.4593C77.05 71.5502 77.4514 70.5964 78.1318 69.9462C78.8122 69.296 79.8308 68.8937 80.8033 68.8937C81.7569 68.8937 82.7527 69.2939 83.4307 69.9247C84.1082 70.555 84.5308 71.4806 84.5567 72.3734C84.5617 72.5637 84.6072 72.7509 84.6904 72.9231C84.7735 73.0954 84.8926 73.249 85.0399 73.3742C85.1873 73.4994 85.3598 73.5934 85.5464 73.6504C85.7331 73.7074 85.9299 73.726 86.1243 73.7052L92.8363 72.9963C94.0757 72.8646 95 71.8864 95 70.655V65.6717C95 64.964 94.6316 64.3669 94.0948 63.9533V60.4736C94.0948 58.9964 92.8175 57.7886 91.3128 57.7886H84.7775L79.4344 54.7384C79.4262 54.7336 79.4207 54.7219 79.4124 54.717C76.2504 52.8228 72.0889 52.4528 67.9535 52.5045ZM67.9976 55.254C71.9147 55.205 75.6357 55.6822 77.9552 57.0797C77.9625 57.0798 77.9699 57.0798 77.9772 57.0797L83.6736 60.3447C83.8875 60.4685 84.1312 60.5352 84.3801 60.538H91.2687V64.8125C91.2719 65.0876 91.3599 65.3555 91.5213 65.5814C91.6827 65.8073 91.91 65.9809 92.1739 66.0798V70.3114L87.0516 70.8269C86.7418 69.7446 86.2216 68.716 85.3736 67.9271C84.1476 66.7863 82.5073 66.1443 80.8033 66.1443C79.069 66.1443 77.4004 66.8127 76.1668 67.9915C75.1151 68.9965 74.5521 70.3426 74.3784 71.7505H49.7164C49.5426 70.3426 49.0018 68.9964 47.9501 67.9915C46.7164 66.8127 45.0259 66.1443 43.2914 66.1443C41.557 66.1443 39.8885 66.8127 38.6549 67.9915C37.6032 68.9964 37.0402 70.3426 36.8665 71.7505H32.8261V67.5405C33.0837 67.2814 33.2264 66.9343 33.2235 66.5739V65.4354C33.2844 65.3784 33.3708 65.3179 33.5547 65.1991C34.0213 64.8977 34.8197 64.494 35.8509 64.1037C37.9132 63.323 40.8627 62.5129 44.1304 61.9127C44.9846 61.7558 45.8231 61.6401 46.6253 61.5261C46.8136 61.4971 46.9938 61.4313 47.1552 61.3328C50.9136 59.1094 55.7454 56.3461 59.0778 55.8769C59.0912 55.8755 59.1085 55.8783 59.1219 55.8769C61.8357 55.6103 64.9661 55.2918 67.9976 55.254ZM62.2351 56.5857C58.7234 56.5857 52.8332 59.3864 52.5645 60.3447V61.4831C52.5645 61.825 52.8426 62.106 53.1827 62.106H63.891L64.73 56.5857H62.2351ZM67.8872 56.5857L67.4677 62.106H75.9902C76.3303 62.106 76.6084 61.825 76.6084 61.4831V59.8292C76.6084 58.5449 76.3821 56.5857 72.2588 56.5857H67.8872Z" fill="white"/>
<defs>
<linearGradient id="paint0_linear_329_525" x1="125" y1="63" x2="0" y2="63" gradientUnits="userSpaceOnUse">
<stop stop-color="#5BA4FA"/>
<stop offset="1" stop-color="#0788FF"/>
</linearGradient>
</defs>
</svg>
