<svg width="65" height="66" viewBox="0 0 65 66" fill="none" xmlns="http://www.w3.org/2000/svg">
<path d="M37.9535 22.5045C34.7284 22.5448 31.5025 22.8827 28.7908 23.1489C28.7687 23.1484 28.7466 23.1484 28.7245 23.1489C24.4023 23.7371 19.696 26.6284 15.963 28.8411C15.2038 28.952 14.4263 29.0801 13.6226 29.2277C10.2108 29.8544 7.13168 30.6782 4.83526 31.5476C3.68705 31.9822 2.7375 32.4161 1.98709 32.9008C1.61189 33.1432 1.28306 33.3868 0.993546 33.717C0.704037 34.0473 0.397418 34.5116 0.397418 35.1347V35.9724C0.154993 36.2954 0 36.6859 0 37.1109V42.5238C0 43.6007 0.945549 44.4999 2.03125 44.4999H8.16916C8.37268 44.5019 8.57424 44.461 8.76004 44.3802C8.94584 44.2993 9.1115 44.1804 9.24567 44.0315C9.37985 43.8826 9.47939 43.7073 9.53747 43.5175C9.59555 43.3277 9.61081 43.128 9.5822 42.9319C9.55954 42.7781 9.53937 42.6148 9.53804 42.4593C9.53806 41.5502 9.93952 40.5963 10.6199 39.9462C11.3004 39.296 12.3189 38.8937 13.2914 38.8937C14.2639 38.8937 15.2825 39.296 15.963 39.9462C16.6434 40.5963 17.0448 41.5502 17.0448 42.4593C17.0433 42.6148 17.0456 42.7567 17.0228 42.9104C16.9909 43.1063 17.003 43.3065 17.0582 43.4974C17.1134 43.6883 17.2104 43.8653 17.3426 44.0163C17.4747 44.1673 17.6388 44.2887 17.8237 44.3722C18.0086 44.4557 18.2099 44.4992 18.4137 44.4999H45.681C45.8827 44.4988 46.0818 44.4557 46.2649 44.3735C46.448 44.2913 46.611 44.1719 46.7427 44.0234C46.8745 43.8748 46.972 43.7006 47.0288 43.5123C47.0856 43.3241 47.1004 43.1262 47.072 42.9319C47.0493 42.7781 47.0513 42.6148 47.0499 42.4593C47.05 41.5502 47.4514 40.5964 48.1318 39.9462C48.8122 39.296 49.8308 38.8937 50.8033 38.8937C51.7569 38.8937 52.7527 39.2939 53.4307 39.9247C54.1082 40.555 54.5308 41.4806 54.5567 42.3734C54.5617 42.5637 54.6072 42.7509 54.6904 42.9231C54.7735 43.0954 54.8926 43.249 55.0399 43.3742C55.1873 43.4994 55.3598 43.5934 55.5464 43.6504C55.7331 43.7074 55.9299 43.726 56.1243 43.7052L62.8363 42.9963C64.0757 42.8646 65 41.8864 65 40.655V35.6717C65 34.964 64.6316 34.3669 64.0948 33.9533V30.4736C64.0948 28.9964 62.8175 27.7886 61.3128 27.7886H54.7775L49.4344 24.7384C49.4262 24.7336 49.4207 24.7219 49.4124 24.717C46.2504 22.8228 42.0889 22.4528 37.9535 22.5045ZM37.9976 25.254C41.9147 25.205 45.6357 25.6822 47.9552 27.0797C47.9625 27.0798 47.9699 27.0798 47.9772 27.0797L53.6736 30.3447C53.8875 30.4685 54.1312 30.5352 54.3801 30.538H61.2687V34.8125C61.2719 35.0876 61.3599 35.3555 61.5213 35.5814C61.6827 35.8073 61.91 35.9809 62.1739 36.0798V40.3114L57.0516 40.8269C56.7418 39.7446 56.2216 38.716 55.3736 37.9271C54.1476 36.7863 52.5073 36.1443 50.8033 36.1443C49.069 36.1443 47.4004 36.8127 46.1668 37.9915C45.1151 38.9965 44.5521 40.3426 44.3784 41.7505H19.7164C19.5426 40.3426 19.0018 38.9964 17.9501 37.9915C16.7164 36.8127 15.0259 36.1443 13.2914 36.1443C11.557 36.1443 9.88852 36.8127 8.65489 37.9915C7.60319 38.9964 7.04024 40.3426 6.86651 41.7505H2.82609V37.5405C3.08367 37.2814 3.22639 36.9343 3.22351 36.5739V35.4354C3.2844 35.3784 3.37079 35.3179 3.55469 35.1991C4.02134 34.8977 4.81971 34.494 5.85088 34.1037C7.91322 33.323 10.8627 32.5129 14.1304 31.9127C14.9846 31.7558 15.8231 31.6401 16.6253 31.5261C16.8136 31.4971 16.9938 31.4313 17.1552 31.3328C20.9136 29.1094 25.7454 26.3461 29.0778 25.8769C29.0912 25.8755 29.1085 25.8783 29.1219 25.8769C31.8357 25.6103 34.9661 25.2918 37.9976 25.254ZM32.2351 26.5857C28.7234 26.5857 22.8332 29.3864 22.5645 30.3447V31.4831C22.5645 31.825 22.8426 32.106 23.1827 32.106H33.891L34.73 26.5857H32.2351ZM37.8872 26.5857L37.4677 32.106H45.9902C46.3303 32.106 46.6084 31.825 46.6084 31.4831V29.8292C46.6084 28.5449 46.3821 26.5857 42.2588 26.5857H37.8872Z" fill="white"/>
</svg>
