<svg width="65" height="65" viewBox="0 0 65 65" fill="none" xmlns="http://www.w3.org/2000/svg">
<path fill-rule="evenodd" clip-rule="evenodd" d="M13.3307 31.7241L11.4175 31.1858C11.3005 32.1403 11.2375 33.1129 11.2375 34.099C11.2375 37.2339 11.8542 40.2194 12.9751 42.9336V42.9381C14.141 45.7608 15.847 48.3031 17.9672 50.4292L17.9717 50.4337C20.0875 52.5644 22.6173 54.2788 25.4263 55.4504H25.4308C28.1317 56.5768 31.1027 57.1965 34.2222 57.1965C37.3418 57.1965 40.3128 56.5768 43.0137 55.4504C45.8181 54.2833 48.348 52.5644 50.4727 50.4292H50.4772C52.5974 48.3031 54.3035 45.7608 55.4694 42.9381V42.9291C56.5903 40.2149 57.207 37.2293 57.207 34.0945C57.207 30.9596 56.5903 27.974 55.4694 25.2599C54.308 22.4417 52.5974 19.8994 50.4727 17.7643V17.7597C48.357 15.6291 45.8271 13.9147 43.0182 12.7431H43.0137C41.1276 11.956 39.1109 11.4177 36.9997 11.1643V13.7066C25.7279 13.7066 16.2297 21.3289 13.3307 31.7241ZM32.2236 7.91186C33.2409 7.91186 34.0692 8.73968 34.0692 9.76654C34.0692 10.7889 33.2454 11.6212 32.2236 11.6212C31.2062 11.6212 30.3779 10.7934 30.3779 9.76654C30.3824 8.7442 31.2062 7.91186 32.2236 7.91186ZM10.8864 24.0792C11.9037 24.0792 12.732 24.907 12.732 25.9339C12.732 26.9562 11.9082 27.7886 10.8864 27.7886C9.86902 27.7886 9.04074 26.9608 9.04074 25.9339C9.04074 24.907 9.86902 24.0792 10.8864 24.0792ZM8.55007 30.3715L4.84082 29.3266C8.88768 14.8465 22.0321 4.84033 36.9997 4.84033V8.18327C39.5025 8.45017 41.9018 9.07895 44.1436 10.0108C47.3171 11.3317 50.1711 13.2678 52.5569 15.6698L52.5614 15.6653C54.9472 18.0628 56.8739 20.9353 58.1928 24.1335C59.4622 27.2096 60.16 30.5751 60.16 34.0945C60.16 37.6184 59.4577 40.9884 58.1928 44.0645C56.8784 47.2536 54.9517 50.1216 52.5614 52.5191L52.5659 52.5236C50.1801 54.9212 47.3216 56.8573 44.1391 58.1827C41.078 59.4583 37.7289 60.1595 34.2267 60.1595C30.72 60.1595 27.3664 59.4538 24.3054 58.1827C21.1318 56.8618 18.2778 54.9257 15.892 52.5282L15.8875 52.5236C13.5017 50.1261 11.5751 47.2582 10.2606 44.069C8.99122 40.993 8.29348 37.6274 8.29348 34.099C8.28448 32.8324 8.37451 31.5884 8.55007 30.3715ZM34.2222 18.0402C36.3875 18.0402 38.4492 18.4745 40.3353 19.2571C42.2889 20.0713 44.049 21.2655 45.521 22.7448C46.993 24.224 48.1814 25.9927 48.9917 27.9605C49.7705 29.8513 50.2026 31.9277 50.2026 34.099C50.2026 36.2749 49.7705 38.3467 48.9917 40.2421C48.1814 42.2053 46.993 43.974 45.521 45.4532C44.049 46.9325 42.2889 48.1267 40.3308 48.9409C38.4491 49.7235 36.383 50.1578 34.2222 50.1578C32.057 50.1578 29.9953 49.7235 28.1092 48.9409C26.1555 48.1267 24.3954 46.9325 22.9234 45.4532C21.4514 43.974 20.263 42.2053 19.4527 40.2375C18.674 38.3467 18.2418 36.2703 18.2418 34.099C18.2418 31.9231 18.674 29.8513 19.4527 27.9559C20.263 25.9927 21.4514 24.224 22.9234 22.7448C24.3954 21.2655 26.1555 20.0713 28.1137 19.2571C29.9953 18.4745 32.057 18.0402 34.2222 18.0402ZM30.684 31.2039C30.7381 31.1315 30.7921 31.0637 30.8461 30.9958C30.9271 30.8963 31.0171 30.8013 31.1117 30.7063C31.3323 30.4892 31.5708 30.2946 31.8319 30.1228C32.0525 29.978 32.2866 29.8559 32.5297 29.7518V21.4872C31.1702 21.6681 29.8828 22.0662 28.6944 22.6452C27.4159 23.2695 26.259 24.1018 25.2687 25.097C24.724 25.6444 24.2289 26.237 23.7922 26.8748C23.3961 27.4538 23.045 28.0645 22.7434 28.7069L30.684 31.2039ZM35.6942 32.3529C35.5052 32.1629 35.2756 32.0046 35.019 31.9005C34.7759 31.801 34.5058 31.7422 34.2177 31.7422C33.9341 31.7422 33.664 31.7965 33.4165 31.9005C33.1644 32.0046 32.9348 32.1584 32.7412 32.3529L32.7367 32.3574C32.5432 32.5519 32.3901 32.7781 32.2866 33.036C32.1875 33.2802 32.129 33.5516 32.129 33.8412C32.129 34.1261 32.183 34.3976 32.2866 34.6464C32.3901 34.9042 32.5432 35.1304 32.7367 35.3249L32.7502 35.3204C32.9393 35.5149 33.1689 35.6687 33.4255 35.7727C33.6685 35.8723 33.9386 35.9311 34.2267 35.9311C34.5103 35.9311 34.7804 35.8768 35.028 35.7727C35.2846 35.6687 35.5097 35.5149 35.7032 35.3204L35.7077 35.3159C35.8968 35.1259 36.0543 34.8952 36.1579 34.6373C36.2569 34.393 36.3154 34.1216 36.3154 33.8321C36.3154 33.5471 36.2569 33.2757 36.1579 33.0269C36.0408 32.7781 35.8833 32.5474 35.6942 32.3529ZM35.8338 29.7156C36.0949 29.8197 36.3469 29.9509 36.5855 30.1047C36.8601 30.2811 37.1077 30.4801 37.3328 30.7063C37.4048 30.7787 37.4813 30.8601 37.5533 30.946C37.5984 31.0003 37.6434 31.0546 37.6839 31.1089L45.7821 28.9285C45.4805 28.2455 45.1159 27.5895 44.7018 26.9743C44.2471 26.3003 43.7294 25.6715 43.1577 25.097C42.1539 24.0883 40.9835 23.2514 39.6961 22.6226C38.4987 22.0436 37.1932 21.6455 35.8248 21.4691V29.7156H35.8338ZM38.6022 34.3116C38.5662 34.6237 38.5032 34.9313 38.4086 35.2209C38.3096 35.5194 38.1791 35.8089 38.0215 36.0758L42.7121 43.5443L42.8741 43.395C42.9732 43.3045 43.0722 43.205 43.1802 43.0964C44.3461 41.9248 45.287 40.5225 45.9307 38.9664C46.5474 37.4691 46.8895 35.8225 46.8895 34.099C46.8895 33.7326 46.876 33.3662 46.8445 33.0088C46.8175 32.7103 46.7815 32.4117 46.7364 32.1222L38.6022 34.3116ZM35.3926 38.1069C35.2261 38.1521 35.055 38.1883 34.8839 38.2155C34.6679 38.2471 34.4473 38.2652 34.2222 38.2652C34.0242 38.2652 33.8261 38.2517 33.628 38.2245C33.475 38.2019 33.3219 38.1748 33.1734 38.1386L28.6493 45.5301C29.4776 45.9373 30.3509 46.2584 31.2647 46.4756C32.21 46.7018 33.2004 46.8239 34.2222 46.8239C35.2801 46.8239 36.3019 46.6927 37.2833 46.4484C38.2331 46.2132 39.1379 45.8694 39.9932 45.4306L35.3926 38.1069ZM30.4815 36.1753C30.3194 35.913 30.1799 35.6325 30.0763 35.3385C29.9728 35.049 29.8963 34.7459 29.8558 34.4292L21.7485 31.8779C21.69 32.2127 21.645 32.5474 21.6135 32.8822C21.5775 33.2757 21.555 33.6828 21.555 34.0945C21.555 35.818 21.8971 37.4646 22.5138 38.9619C23.153 40.518 24.0938 41.9203 25.2642 43.0919C25.3902 43.2186 25.5208 43.3407 25.6423 43.4583L25.8854 43.68L30.4815 36.1753Z" fill="white"/>
</svg>
