<svg width="125" height="125" viewBox="0 0 125 125" fill="none" xmlns="http://www.w3.org/2000/svg">
<rect width="125" height="125" rx="25" fill="#D9D9D9"/>
<rect width="125" height="125" rx="25" fill="url(#paint0_linear_329_184)"/>
<path fill-rule="evenodd" clip-rule="evenodd" d="M43.3307 61.7241L41.4175 61.1858C41.3005 62.1403 41.2375 63.1129 41.2375 64.099C41.2375 67.2339 41.8542 70.2194 42.9751 72.9336V72.9381C44.141 75.7608 45.847 78.3031 47.9672 80.4292L47.9717 80.4337C50.0875 82.5644 52.6173 84.2788 55.4263 85.4504H55.4308C58.1317 86.5768 61.1027 87.1965 64.2222 87.1965C67.3418 87.1965 70.3128 86.5768 73.0137 85.4504C75.8181 84.2833 78.348 82.5644 80.4727 80.4292H80.4772C82.5974 78.3031 84.3035 75.7608 85.4694 72.9381V72.9291C86.5903 70.2149 87.207 67.2293 87.207 64.0945C87.207 60.9596 86.5903 57.974 85.4694 55.2599C84.308 52.4417 82.5974 49.8994 80.4727 47.7643V47.7597C78.357 45.6291 75.8271 43.9147 73.0182 42.7431H73.0137C71.1276 41.956 69.1109 41.4177 66.9997 41.1643V43.7066C55.7279 43.7066 46.2297 51.3289 43.3307 61.7241ZM62.2236 37.9119C63.2409 37.9119 64.0692 38.7397 64.0692 39.7665C64.0692 40.7889 63.2454 41.6212 62.2236 41.6212C61.2062 41.6212 60.3779 40.7934 60.3779 39.7665C60.3824 38.7442 61.2062 37.9119 62.2236 37.9119ZM40.8864 54.0792C41.9037 54.0792 42.732 54.907 42.732 55.9339C42.732 56.9562 41.9082 57.7886 40.8864 57.7886C39.869 57.7886 39.0407 56.9608 39.0407 55.9339C39.0407 54.907 39.869 54.0792 40.8864 54.0792ZM38.5501 60.3715L34.8408 59.3266C38.8877 44.8465 52.0321 34.8403 66.9997 34.8403V38.1833C69.5025 38.4502 71.9018 39.0789 74.1436 40.0108C77.3171 41.3317 80.1711 43.2678 82.5569 45.6698L82.5614 45.6653C84.9472 48.0628 86.8739 50.9353 88.1928 54.1335C89.4622 57.2096 90.16 60.5751 90.16 64.0945C90.16 67.6184 89.4577 70.9884 88.1928 74.0645C86.8784 77.2536 84.9517 80.1216 82.5614 82.5191L82.5659 82.5236C80.1801 84.9212 77.3216 86.8573 74.1391 88.1827C71.078 89.4583 67.7289 90.1595 64.2267 90.1595C60.72 90.1595 57.3664 89.4538 54.3054 88.1827C51.1318 86.8618 48.2778 84.9257 45.892 82.5282L45.8875 82.5236C43.5017 80.1261 41.5751 77.2582 40.2606 74.069C38.9912 70.993 38.2935 67.6274 38.2935 64.099C38.2845 62.8324 38.3745 61.5884 38.5501 60.3715ZM64.2222 48.0402C66.3875 48.0402 68.4492 48.4745 70.3353 49.2571C72.2889 50.0713 74.049 51.2655 75.521 52.7448C76.993 54.224 78.1814 55.9927 78.9917 57.9605C79.7705 59.8513 80.2026 61.9277 80.2026 64.099C80.2026 66.2749 79.7705 68.3467 78.9917 70.2421C78.1814 72.2053 76.993 73.974 75.521 75.4532C74.049 76.9325 72.2889 78.1267 70.3308 78.9409C68.4491 79.7235 66.383 80.1578 64.2222 80.1578C62.057 80.1578 59.9953 79.7235 58.1092 78.9409C56.1555 78.1267 54.3954 76.9325 52.9234 75.4532C51.4514 73.974 50.263 72.2053 49.4527 70.2375C48.674 68.3467 48.2418 66.2703 48.2418 64.099C48.2418 61.9231 48.674 59.8513 49.4527 57.9559C50.263 55.9927 51.4514 54.224 52.9234 52.7448C54.3954 51.2655 56.1555 50.0713 58.1137 49.2571C59.9953 48.4745 62.057 48.0402 64.2222 48.0402ZM60.684 61.2039C60.7381 61.1315 60.7921 61.0637 60.8461 60.9958C60.9271 60.8963 61.0171 60.8013 61.1117 60.7063C61.3323 60.4892 61.5708 60.2946 61.8319 60.1228C62.0525 59.978 62.2866 59.8559 62.5297 59.7518V51.4872C61.1702 51.6681 59.8828 52.0662 58.6944 52.6452C57.4159 53.2695 56.259 54.1018 55.2687 55.097C54.724 55.6444 54.2289 56.237 53.7922 56.8748C53.3961 57.4538 53.045 58.0645 52.7434 58.7069L60.684 61.2039ZM65.6942 62.3529C65.5052 62.1629 65.2756 62.0046 65.019 61.9005C64.7759 61.801 64.5058 61.7422 64.2177 61.7422C63.9341 61.7422 63.664 61.7965 63.4165 61.9005C63.1644 62.0046 62.9348 62.1584 62.7412 62.3529L62.7367 62.3574C62.5432 62.5519 62.3901 62.7781 62.2866 63.036C62.1875 63.2802 62.129 63.5516 62.129 63.8412C62.129 64.1261 62.183 64.3976 62.2866 64.6464C62.3901 64.9042 62.5432 65.1304 62.7367 65.3249L62.7502 65.3204C62.9393 65.5149 63.1689 65.6687 63.4255 65.7727C63.6685 65.8723 63.9386 65.9311 64.2267 65.9311C64.5103 65.9311 64.7804 65.8768 65.028 65.7727C65.2846 65.6687 65.5097 65.5149 65.7032 65.3204L65.7077 65.3159C65.8968 65.1259 66.0543 64.8952 66.1579 64.6373C66.2569 64.393 66.3154 64.1216 66.3154 63.8321C66.3154 63.5471 66.2569 63.2757 66.1579 63.0269C66.0408 62.7781 65.8833 62.5474 65.6942 62.3529ZM65.8338 59.7156C66.0949 59.8197 66.3469 59.9509 66.5855 60.1047C66.8601 60.2811 67.1077 60.4801 67.3328 60.7063C67.4048 60.7787 67.4813 60.8601 67.5533 60.946C67.5984 61.0003 67.6434 61.0546 67.6839 61.1089L75.7821 58.9285C75.4805 58.2455 75.1159 57.5895 74.7018 56.9743C74.2471 56.3003 73.7294 55.6715 73.1577 55.097C72.1539 54.0883 70.9835 53.2514 69.6961 52.6226C68.4987 52.0436 67.1932 51.6455 65.8248 51.4691V59.7156H65.8338ZM68.6022 64.3116C68.5662 64.6237 68.5032 64.9313 68.4086 65.2209C68.3096 65.5194 68.1791 65.8089 68.0215 66.0758L72.7121 73.5443L72.8741 73.395C72.9732 73.3045 73.0722 73.205 73.1802 73.0964C74.3461 71.9248 75.287 70.5225 75.9307 68.9664C76.5474 67.4691 76.8895 65.8225 76.8895 64.099C76.8895 63.7326 76.876 63.3662 76.8445 63.0088C76.8175 62.7103 76.7815 62.4117 76.7364 62.1222L68.6022 64.3116ZM65.3926 68.1069C65.2261 68.1521 65.055 68.1883 64.8839 68.2155C64.6679 68.2471 64.4473 68.2652 64.2222 68.2652C64.0242 68.2652 63.8261 68.2517 63.628 68.2245C63.475 68.2019 63.3219 68.1748 63.1734 68.1386L58.6493 75.5301C59.4776 75.9373 60.3509 76.2584 61.2647 76.4756C62.21 76.7018 63.2004 76.8239 64.2222 76.8239C65.2801 76.8239 66.3019 76.6927 67.2833 76.4484C68.2331 76.2132 69.1379 75.8694 69.9932 75.4306L65.3926 68.1069ZM60.4815 66.1753C60.3194 65.913 60.1799 65.6325 60.0763 65.3385C59.9728 65.049 59.8963 64.7459 59.8558 64.4292L51.7485 61.8779C51.69 62.2127 51.645 62.5474 51.6135 62.8822C51.5775 63.2757 51.555 63.6828 51.555 64.0945C51.555 65.818 51.8971 67.4646 52.5138 68.9619C53.153 70.518 54.0938 71.9203 55.2642 73.0919C55.3902 73.2186 55.5208 73.3407 55.6423 73.4583L55.8854 73.68L60.4815 66.1753Z" fill="white"/>
<defs>
<linearGradient id="paint0_linear_329_184" x1="125" y1="62.5" x2="0" y2="62.5" gradientUnits="userSpaceOnUse">
<stop stop-color="#5BA4FA"/>
<stop offset="1" stop-color="#0788FF"/>
</linearGradient>
</defs>
</svg>
