<svg width="35" height="35" viewBox="0 0 35 35" fill="none" xmlns="http://www.w3.org/2000/svg">
<path d="M10.208 17.8647C10.208 17.2606 10.6977 16.7709 11.3018 16.7709C11.9058 16.7709 12.3955 17.2606 12.3955 17.8647C12.3955 18.4687 11.9058 18.9584 11.3018 18.9584C10.6977 18.9584 10.208 18.4687 10.208 17.8647ZM11.3018 21.1459C10.6977 21.1459 10.208 21.6356 10.208 22.2397C10.208 22.8437 10.6977 23.3334 11.3018 23.3334C11.9058 23.3334 12.3955 22.8437 12.3955 22.2397C12.3955 21.6356 11.9058 21.1459 11.3018 21.1459ZM10.208 26.6147C10.208 26.0106 10.6977 25.5209 11.3018 25.5209C11.9058 25.5209 12.3955 26.0106 12.3955 26.6147C12.3955 27.2187 11.9058 27.7084 11.3018 27.7084C10.6977 27.7084 10.208 27.2187 10.208 26.6147ZM15.6768 16.7709C15.0727 16.7709 14.583 17.2606 14.583 17.8647C14.583 18.4687 15.0727 18.9584 15.6768 18.9584H23.6976C24.3017 18.9584 24.7913 18.4687 24.7913 17.8647C24.7913 17.2606 24.3017 16.7709 23.6976 16.7709H15.6768ZM14.583 22.2397C14.583 21.6356 15.0727 21.1459 15.6768 21.1459H23.6976C24.3017 21.1459 24.7913 21.6356 24.7913 22.2397C24.7913 22.8437 24.3017 23.3334 23.6976 23.3334H15.6768C15.0727 23.3334 14.583 22.8437 14.583 22.2397ZM15.6768 25.5209C15.0727 25.5209 14.583 26.0106 14.583 26.6147C14.583 27.2187 15.0727 27.7084 15.6768 27.7084H23.6976C24.3017 27.7084 24.7913 27.2187 24.7913 26.6147C24.7913 26.0106 24.3017 25.5209 23.6976 25.5209H15.6768ZM28.3118 12.2705L19.8111 3.77133C19.7893 3.74953 19.7646 3.73061 19.7401 3.71182C19.722 3.69794 19.7039 3.68412 19.6872 3.66925C19.5836 3.57591 19.4815 3.48404 19.3678 3.40675C19.3309 3.38187 19.2906 3.36223 19.2504 3.34269C19.227 3.33129 19.2037 3.31993 19.1811 3.30758C19.1568 3.29386 19.1325 3.27982 19.1082 3.26577C19.0292 3.22004 18.9498 3.17411 18.8661 3.13841C18.5788 3.01883 18.2697 2.95904 17.9561 2.93716C17.9274 2.93533 17.8989 2.93145 17.8704 2.92755C17.8308 2.92216 17.7912 2.91675 17.7505 2.91675H8.74967C7.13967 2.91675 5.83301 4.22341 5.83301 5.83341V29.1667C5.83301 30.7767 7.13967 32.0834 8.74967 32.0834H26.2497C27.8597 32.0834 29.1663 30.7767 29.1663 29.1667V14.3326C29.1663 13.5597 28.8586 12.8174 28.3118 12.2705ZM26.9788 29.1667C26.9788 29.5678 26.6522 29.8959 26.2497 29.8959H8.74967C8.34717 29.8959 8.02051 29.5678 8.02051 29.1667V5.83341C8.02051 5.43237 8.34717 5.10425 8.74967 5.10425H17.4997V11.6667C17.4997 13.2767 18.8063 14.5834 20.4163 14.5834H26.9788V29.1667ZM19.6872 6.73904L25.3426 12.3959H20.4163C20.0138 12.3959 19.6872 12.0678 19.6872 11.6667V6.73904Z" fill="white"/>
</svg>
