<svg width="65" height="65" viewBox="0 0 65 65" fill="none" xmlns="http://www.w3.org/2000/svg">
<path d="M26.4061 24.376C27.5279 24.376 28.4373 25.2854 28.4373 26.4072V33.1781C28.4373 35.0478 29.953 36.5635 31.8228 36.5635H33.854V26.4072C33.854 25.2854 34.7634 24.376 35.8853 24.376C37.0071 24.376 37.9165 25.2854 37.9165 26.4072V36.5635H49.4269C50.5488 36.5635 51.4582 37.4729 51.4582 38.5947C51.4582 39.7166 50.5488 40.626 49.4269 40.626H31.8228C27.7094 40.626 24.3748 37.2914 24.3748 33.1781V26.4072C24.3748 25.2854 25.2843 24.376 26.4061 24.376ZM26.4061 8.12598C27.5279 8.12598 28.4373 9.0354 28.4373 10.1572V13.5426H33.854V10.1572C33.854 9.0354 34.7634 8.12598 35.8853 8.12598C37.0071 8.12598 37.9165 9.0354 37.9165 10.1572V13.5426H45.3644C46.195 13.5426 46.9419 14.0483 47.2504 14.8195L49.448 20.3135H52.1353C56.2486 20.3135 59.5832 23.648 59.5832 27.7614V42.6572C59.5832 46.7706 56.2486 50.1051 52.1353 50.1051H49.448L47.2504 55.5991C46.9419 56.3703 46.195 56.876 45.3644 56.876H25.0519C24.4889 56.876 23.9511 56.6423 23.567 56.2307L15.5446 47.6353C14.2574 46.2561 13.5415 44.4399 13.5415 42.5534V33.8551H9.479V44.0114C9.479 45.1332 8.56958 46.0426 7.44775 46.0426C6.32593 46.0426 5.4165 45.1332 5.4165 44.0114V20.9906C5.4165 19.8687 6.32593 18.9593 7.44775 18.9593C8.56958 18.9593 9.479 19.8687 9.479 20.9906V29.7926H13.5415V20.9906C13.5415 16.8772 16.876 13.5426 20.9894 13.5426H24.3748V10.1572C24.3748 9.0354 25.2843 8.12598 26.4061 8.12598ZM20.9894 17.6051C19.1197 17.6051 17.604 19.1208 17.604 20.9906V42.5534C17.604 43.4109 17.9294 44.2365 18.5145 44.8634L25.9346 52.8135H43.9892L46.1868 47.3195C46.4953 46.5483 47.2422 46.0426 48.0728 46.0426H52.1353C54.005 46.0426 55.5207 44.5269 55.5207 42.6572V27.7614C55.5207 25.8917 54.005 24.376 52.1353 24.376H48.0728C47.2422 24.376 46.4953 23.8703 46.1868 23.0991L43.9892 17.6051H20.9894Z" fill="white"/>
</svg>
