<svg width="125" height="125" viewBox="0 0 125 125" fill="none" xmlns="http://www.w3.org/2000/svg">
<rect width="125" height="125" rx="25" fill="#D9D9D9"/>
<rect width="125" height="125" rx="25" fill="url(#paint0_linear_329_197)"/>
<path d="M56.4061 54.376C57.5279 54.376 58.4373 55.2854 58.4373 56.4072V63.1781C58.4373 65.0478 59.953 66.5635 61.8228 66.5635H63.854V56.4072C63.854 55.2854 64.7634 54.376 65.8853 54.376C67.0071 54.376 67.9165 55.2854 67.9165 56.4072V66.5635H79.4269C80.5488 66.5635 81.4582 67.4729 81.4582 68.5947C81.4582 69.7166 80.5488 70.626 79.4269 70.626H61.8228C57.7094 70.626 54.3748 67.2914 54.3748 63.1781V56.4072C54.3748 55.2854 55.2843 54.376 56.4061 54.376ZM56.4061 38.126C57.5279 38.126 58.4373 39.0354 58.4373 40.1572V43.5426H63.854V40.1572C63.854 39.0354 64.7634 38.126 65.8853 38.126C67.0071 38.126 67.9165 39.0354 67.9165 40.1572V43.5426H75.3644C76.195 43.5426 76.9419 44.0483 77.2504 44.8195L79.448 50.3135H82.1353C86.2486 50.3135 89.5832 53.648 89.5832 57.7614V72.6572C89.5832 76.7706 86.2486 80.1051 82.1353 80.1051H79.448L77.2504 85.5991C76.9419 86.3703 76.195 86.876 75.3644 86.876H55.0519C54.4889 86.876 53.9511 86.6423 53.567 86.2307L45.5446 77.6353C44.2574 76.2561 43.5415 74.4399 43.5415 72.5534V63.8551H39.479V74.0114C39.479 75.1332 38.5696 76.0426 37.4478 76.0426C36.3259 76.0426 35.4165 75.1332 35.4165 74.0114V50.9906C35.4165 49.8687 36.3259 48.9593 37.4478 48.9593C38.5696 48.9593 39.479 49.8687 39.479 50.9906V59.7926H43.5415V50.9906C43.5415 46.8772 46.876 43.5426 50.9894 43.5426H54.3748V40.1572C54.3748 39.0354 55.2843 38.126 56.4061 38.126ZM50.9894 47.6051C49.1197 47.6051 47.604 49.1208 47.604 50.9906V72.5534C47.604 73.4109 47.9294 74.2365 48.5145 74.8634L55.9346 82.8135H73.9892L76.1868 77.3195C76.4953 76.5483 77.2422 76.0426 78.0728 76.0426H82.1353C84.005 76.0426 85.5207 74.5269 85.5207 72.6572V57.7614C85.5207 55.8917 84.005 54.376 82.1353 54.376H78.0728C77.2422 54.376 76.4953 53.8703 76.1868 53.0991L73.9892 47.6051H50.9894Z" fill="white"/>
<defs>
<linearGradient id="paint0_linear_329_197" x1="125" y1="62.5" x2="0" y2="62.5" gradientUnits="userSpaceOnUse">
<stop stop-color="#5BA4FA"/>
<stop offset="1" stop-color="#0788FF"/>
</linearGradient>
</defs>
</svg>
