<svg width="65" height="66" viewBox="0 0 65 66" fill="none" xmlns="http://www.w3.org/2000/svg">
<path d="M18.958 33.6769C18.958 32.5551 19.8674 31.6457 20.9893 31.6457C22.1111 31.6457 23.0205 32.5551 23.0205 33.6769C23.0205 34.7987 22.1111 35.7082 20.9893 35.7082C19.8674 35.7082 18.958 34.7987 18.958 33.6769ZM20.9893 39.7707C19.8674 39.7707 18.958 40.6801 18.958 41.8019C18.958 42.9237 19.8674 43.8332 20.9893 43.8332C22.1111 43.8332 23.0205 42.9237 23.0205 41.8019C23.0205 40.6801 22.1111 39.7707 20.9893 39.7707ZM18.958 49.9269C18.958 48.8051 19.8674 47.8957 20.9893 47.8957C22.1111 47.8957 23.0205 48.8051 23.0205 49.9269C23.0205 51.0487 22.1111 51.9582 20.9893 51.9582C19.8674 51.9582 18.958 51.0487 18.958 49.9269ZM29.1143 31.6457C27.9924 31.6457 27.083 32.5551 27.083 33.6769C27.083 34.7987 27.9924 35.7082 29.1143 35.7082H44.0101C45.1319 35.7082 46.0413 34.7987 46.0413 33.6769C46.0413 32.5551 45.1319 31.6457 44.0101 31.6457H29.1143ZM27.083 41.8019C27.083 40.6801 27.9924 39.7707 29.1143 39.7707H44.0101C45.1319 39.7707 46.0413 40.6801 46.0413 41.8019C46.0413 42.9237 45.1319 43.8332 44.0101 43.8332H29.1143C27.9924 43.8332 27.083 42.9237 27.083 41.8019ZM29.1143 47.8957C27.9924 47.8957 27.083 48.8051 27.083 49.9269C27.083 51.0487 27.9924 51.9582 29.1143 51.9582H44.0101C45.1319 51.9582 46.0413 51.0487 46.0413 49.9269C46.0413 48.8051 45.1319 47.8957 44.0101 47.8957H29.1143ZM52.5793 23.2878L36.7924 7.50359C36.7519 7.46309 36.706 7.42797 36.6604 7.39307C36.6268 7.36729 36.5932 7.34162 36.5622 7.314C36.3699 7.14067 36.1803 6.97005 35.9691 6.8265C35.9006 6.7803 35.8257 6.74383 35.7511 6.70753C35.7076 6.68637 35.6643 6.66527 35.6224 6.64234C35.5772 6.61686 35.5321 6.59079 35.487 6.56468C35.3402 6.47976 35.1927 6.39446 35.0374 6.32817C34.5038 6.10609 33.9297 5.99505 33.3474 5.95442C33.294 5.95101 33.2411 5.9438 33.1881 5.93657C33.1147 5.92655 33.041 5.9165 32.9655 5.9165H16.2497C13.2597 5.9165 10.833 8.34317 10.833 11.3332V54.6665C10.833 57.6565 13.2597 60.0832 16.2497 60.0832H48.7497C51.7397 60.0832 54.1663 57.6565 54.1663 54.6665V27.1173C54.1663 25.6819 53.5949 24.3034 52.5793 23.2878ZM50.1038 54.6665C50.1038 55.4113 49.4972 56.0207 48.7497 56.0207H16.2497C15.5022 56.0207 14.8955 55.4113 14.8955 54.6665V11.3332C14.8955 10.5884 15.5022 9.979 16.2497 9.979H32.4997V22.1665C32.4997 25.1565 34.9263 27.5832 37.9163 27.5832H50.1038V54.6665ZM36.5622 13.015L47.0651 23.5207H37.9163C37.1688 23.5207 36.5622 22.9113 36.5622 22.1665V13.015Z" fill="white"/>
</svg>
