<svg width="125" height="126" viewBox="0 0 125 126" fill="none" xmlns="http://www.w3.org/2000/svg">
<rect y="0.5" width="125" height="125" rx="25" fill="#D9D9D9"/>
<rect y="0.5" width="125" height="125" rx="25" fill="url(#paint0_linear_329_538)"/>
<path d="M48.958 63.6769C48.958 62.5551 49.8674 61.6457 50.9893 61.6457C52.1111 61.6457 53.0205 62.5551 53.0205 63.6769C53.0205 64.7987 52.1111 65.7082 50.9893 65.7082C49.8674 65.7082 48.958 64.7987 48.958 63.6769ZM50.9893 69.7707C49.8674 69.7707 48.958 70.6801 48.958 71.8019C48.958 72.9237 49.8674 73.8332 50.9893 73.8332C52.1111 73.8332 53.0205 72.9237 53.0205 71.8019C53.0205 70.6801 52.1111 69.7707 50.9893 69.7707ZM48.958 79.9269C48.958 78.8051 49.8674 77.8957 50.9893 77.8957C52.1111 77.8957 53.0205 78.8051 53.0205 79.9269C53.0205 81.0487 52.1111 81.9582 50.9893 81.9582C49.8674 81.9582 48.958 81.0487 48.958 79.9269ZM59.1143 61.6457C57.9924 61.6457 57.083 62.5551 57.083 63.6769C57.083 64.7987 57.9924 65.7082 59.1143 65.7082H74.0101C75.1319 65.7082 76.0413 64.7987 76.0413 63.6769C76.0413 62.5551 75.1319 61.6457 74.0101 61.6457H59.1143ZM57.083 71.8019C57.083 70.6801 57.9924 69.7707 59.1143 69.7707H74.0101C75.1319 69.7707 76.0413 70.6801 76.0413 71.8019C76.0413 72.9237 75.1319 73.8332 74.0101 73.8332H59.1143C57.9924 73.8332 57.083 72.9237 57.083 71.8019ZM59.1143 77.8957C57.9924 77.8957 57.083 78.8051 57.083 79.9269C57.083 81.0487 57.9924 81.9582 59.1143 81.9582H74.0101C75.1319 81.9582 76.0413 81.0487 76.0413 79.9269C76.0413 78.8051 75.1319 77.8957 74.0101 77.8957H59.1143ZM82.5793 53.2878L66.7924 37.5036C66.7519 37.4631 66.706 37.428 66.6604 37.3931C66.6268 37.3673 66.5932 37.3416 66.5622 37.314C66.3699 37.1407 66.1803 36.97 65.9691 36.8265C65.9006 36.7803 65.8257 36.7438 65.7511 36.7075C65.7076 36.6864 65.6643 36.6653 65.6224 36.6423C65.5772 36.6169 65.5321 36.5908 65.487 36.5647C65.3402 36.4798 65.1927 36.3945 65.0374 36.3282C64.5038 36.1061 63.9297 35.995 63.3474 35.9544C63.294 35.951 63.2411 35.9438 63.1881 35.9366C63.1147 35.9266 63.041 35.9165 62.9655 35.9165H46.2497C43.2597 35.9165 40.833 38.3432 40.833 41.3332V84.6665C40.833 87.6565 43.2597 90.0832 46.2497 90.0832H78.7497C81.7397 90.0832 84.1663 87.6565 84.1663 84.6665V57.1173C84.1663 55.6819 83.5949 54.3034 82.5793 53.2878ZM80.1038 84.6665C80.1038 85.4113 79.4972 86.0207 78.7497 86.0207H46.2497C45.5022 86.0207 44.8955 85.4113 44.8955 84.6665V41.3332C44.8955 40.5884 45.5022 39.979 46.2497 39.979H62.4997V52.1665C62.4997 55.1565 64.9263 57.5832 67.9163 57.5832H80.1038V84.6665ZM66.5622 43.015L77.0651 53.5207H67.9163C67.1688 53.5207 66.5622 52.9113 66.5622 52.1665V43.015Z" fill="white"/>
<defs>
<linearGradient id="paint0_linear_329_538" x1="125" y1="63" x2="0" y2="63" gradientUnits="userSpaceOnUse">
<stop stop-color="#5BA4FA"/>
<stop offset="1" stop-color="#0788FF"/>
</linearGradient>
</defs>
</svg>
