<svg width="125" height="125" viewBox="0 0 125 125" fill="none" xmlns="http://www.w3.org/2000/svg">
<rect width="125" height="125" rx="25" fill="#D9D9D9"/>
<rect width="125" height="125" rx="25" fill="url(#paint0_linear_329_572)"/>
<path d="M76.2726 79.2235C74.6809 77.8583 72.5798 77.2581 70.5073 77.5774L59.9475 79.2013L56.9496 66.6349C56.1803 63.4047 54.5045 60.4853 52.1034 58.1921C50.6845 56.8361 49.057 55.7455 47.2904 54.9498C49.1267 53.652 50.0475 51.2936 49.4119 49.0057L48.1656 44.5194C47.3567 41.6084 44.3308 39.8974 41.4191 40.7065C39.6644 41.194 38.6335 43.0181 39.1208 44.7729L42.0927 55.47C42.1069 55.5211 47.875 79.6422 47.875 79.6422C47.6352 80.2273 47.5019 80.867 47.5019 81.5375C47.5019 82.8241 47.9894 83.9987 48.7887 84.8875V85.5864C48.7887 88.02 50.7687 90 53.2022 90H74.3637C76.7973 90 78.7773 88.02 78.7773 85.5864V84.6719C78.7774 82.5747 77.8643 80.589 76.2726 79.2235ZM42.0671 43.0388C42.34 42.9631 42.6146 42.9268 42.8849 42.9268C44.2246 42.9268 45.4576 43.815 45.8332 45.1673L47.0795 49.6537C47.531 51.2787 46.5763 52.9681 44.9511 53.4197L44.1011 53.6559L41.4532 44.125C41.3229 43.6563 41.5985 43.169 42.0671 43.0388ZM50.4311 59.9425C52.4942 61.9127 53.9339 64.4208 54.5948 67.1961L57.547 79.5705L57.154 79.631C56.4021 77.8088 54.6071 76.5227 52.5166 76.5227C51.5199 76.5227 50.591 76.8161 49.8094 77.3195L44.8675 56.5981C46.9407 57.2833 48.8381 58.42 50.4311 59.9425ZM49.9224 81.5374C49.9224 80.1069 51.0862 78.9431 52.5166 78.9431C53.9471 78.9431 55.1108 80.1069 55.1108 81.5374C55.1108 82.9678 53.9471 84.1316 52.5166 84.1316C51.0862 84.1316 49.9224 82.9679 49.9224 81.5374ZM76.3568 85.5862C76.3568 86.6852 75.4628 87.5792 74.3638 87.5792H53.2023C52.4033 87.5792 51.7142 87.1053 51.3968 86.4246C51.7572 86.5071 52.1317 86.5522 52.5168 86.5522C55.1173 86.5522 57.2611 84.5625 57.5075 82.0255L70.8756 79.9696C72.2485 79.7584 73.6418 80.1557 74.6968 81.0606C75.7518 81.9655 76.3569 83.2818 76.3569 84.6717V85.5862H76.3568Z" fill="white"/>
<path d="M86.0363 54.7606L83.7182 45.3231C81.9351 38.0648 74.5794 33.61 67.3211 35.3928C63.805 36.2566 60.8355 38.4378 58.9599 41.5347C57.0845 44.6317 56.5271 48.2737 57.3908 51.7899L59.7089 61.2274C60.5727 64.7435 62.7539 67.7129 65.8508 69.5885C67.9962 70.8877 70.4028 71.5543 72.848 71.5543C73.9328 71.5543 75.0253 71.423 76.106 71.1576C79.6221 70.294 82.5916 68.1127 84.4672 65.0157C86.3426 61.9188 86.9 58.2769 86.0363 54.7606ZM82.3966 63.7618C80.8561 66.3057 78.4169 68.0975 75.5288 68.8069C69.567 70.2712 63.5245 66.6125 62.0599 60.65L59.7418 51.2124C59.0324 48.3243 59.49 45.3325 61.0307 42.7886C62.5713 40.2447 65.0105 38.4529 67.8985 37.7435C68.7872 37.5252 69.6774 37.4208 70.5541 37.4208C75.5599 37.4208 80.1213 40.8268 81.3675 45.9004L83.6856 55.338C84.395 58.2263 83.9374 61.2179 82.3966 63.7618Z" fill="white"/>
<defs>
<linearGradient id="paint0_linear_329_572" x1="125" y1="62.5" x2="0" y2="62.5" gradientUnits="userSpaceOnUse">
<stop stop-color="#5BA4FA"/>
<stop offset="1" stop-color="#0788FF"/>
</linearGradient>
</defs>
</svg>
