<svg width="65" height="65" viewBox="0 0 65 65" fill="none" xmlns="http://www.w3.org/2000/svg">
<path d="M46.2726 49.2235C44.6809 47.8583 42.5798 47.2581 40.5073 47.5774L29.9475 49.2013L26.9496 36.6349C26.1803 33.4047 24.5045 30.4853 22.1034 28.1921C20.6845 26.8361 19.057 25.7455 17.2904 24.9498C19.1267 23.652 20.0475 21.2936 19.4119 19.0057L18.1656 14.5194C17.3567 11.6084 14.3308 9.89739 11.4191 10.7065C9.6644 11.194 8.63349 13.0181 9.12084 14.7729L12.0927 25.47C12.1069 25.5211 17.875 49.6422 17.875 49.6422C17.6352 50.2273 17.5019 50.867 17.5019 51.5375C17.5019 52.8241 17.9894 53.9987 18.7887 54.8875V55.5864C18.7887 58.02 20.7687 60 23.2022 60H44.3637C46.7973 60 48.7773 58.02 48.7773 55.5864V54.6719C48.7774 52.5747 47.8643 50.589 46.2726 49.2235ZM12.0671 13.0388C12.34 12.9631 12.6146 12.9268 12.8849 12.9268C14.2246 12.9268 15.4576 13.815 15.8332 15.1673L17.0795 19.6537C17.531 21.2787 16.5763 22.9681 14.9511 23.4197L14.1011 23.6559L11.4532 14.125C11.3229 13.6563 11.5985 13.169 12.0671 13.0388ZM20.4311 29.9425C22.4942 31.9127 23.9339 34.4208 24.5948 37.1961L27.547 49.5705L27.154 49.631C26.4021 47.8088 24.6071 46.5227 22.5166 46.5227C21.5199 46.5227 20.591 46.8161 19.8094 47.3195L14.8675 26.5981C16.9407 27.2833 18.8381 28.42 20.4311 29.9425ZM19.9224 51.5374C19.9224 50.1069 21.0862 48.9431 22.5166 48.9431C23.9471 48.9431 25.1108 50.1069 25.1108 51.5374C25.1108 52.9678 23.9471 54.1316 22.5166 54.1316C21.0862 54.1316 19.9224 52.9679 19.9224 51.5374ZM46.3568 55.5862C46.3568 56.6852 45.4628 57.5792 44.3638 57.5792H23.2023C22.4033 57.5792 21.7142 57.1053 21.3968 56.4246C21.7572 56.5071 22.1317 56.5522 22.5168 56.5522C25.1173 56.5522 27.2611 54.5625 27.5075 52.0255L40.8756 49.9696C42.2485 49.7584 43.6418 50.1557 44.6968 51.0606C45.7518 51.9655 46.3569 53.2818 46.3569 54.6717V55.5862H46.3568Z" fill="white"/>
<path d="M56.0363 24.7606L53.7182 15.3231C51.9351 8.06477 44.5794 3.61005 37.3211 5.39282C33.805 6.25658 30.8355 8.43781 28.9599 11.5347C27.0845 14.6317 26.5271 18.2737 27.3908 21.7899L29.7089 31.2274C30.5727 34.7435 32.7539 37.7129 35.8508 39.5885C37.9962 40.8877 40.4028 41.5543 42.848 41.5543C43.9328 41.5543 45.0253 41.423 46.106 41.1576C49.6221 40.294 52.5916 38.1127 54.4672 35.0157C56.3426 31.9188 56.9 28.2769 56.0363 24.7606ZM52.3966 33.7618C50.8561 36.3057 48.4169 38.0975 45.5288 38.8069C39.567 40.2712 33.5245 36.6125 32.0599 30.65L29.7418 21.2124C29.0324 18.3243 29.49 15.3325 31.0307 12.7886C32.5713 10.2447 35.0105 8.45288 37.8985 7.7435C38.7872 7.52525 39.6774 7.42076 40.5541 7.42076C45.5599 7.42076 50.1213 10.8268 51.3675 15.9004L53.6856 25.338C54.395 28.2263 53.9374 31.2179 52.3966 33.7618Z" fill="white"/>
</svg>
