<svg width="65" height="65" viewBox="0 0 65 65" fill="none" xmlns="http://www.w3.org/2000/svg">
<path fill-rule="evenodd" clip-rule="evenodd" d="M32.4999 4.84033C47.7748 4.84033 60.1595 17.225 60.1595 32.4999C60.1595 47.7748 47.7748 60.1595 32.4999 60.1595C17.225 60.1595 4.84033 47.7748 4.84033 32.4999C4.84033 17.225 17.225 4.84033 32.4999 4.84033ZM32.3784 32.5719C33.1707 32.5719 33.81 33.2112 33.81 34.0035C33.81 34.7959 33.1707 35.4351 32.3784 35.4351C31.586 35.4351 30.9468 34.7959 30.9468 34.0035C30.9468 33.2157 31.5905 32.5719 32.3784 32.5719ZM32.3919 28.8264C35.2461 28.8264 37.5555 31.1403 37.5555 33.99C37.5555 36.8442 35.2416 39.1537 32.3919 39.1537C29.5422 39.1537 27.2282 36.8397 27.2282 33.99C27.2282 31.1358 29.5422 28.8264 32.3919 28.8264ZM11.4941 24.9052C13.4975 19.3634 17.5807 14.686 22.7038 12.2955C29.7403 9.01358 38.2848 8.80649 45.5239 14.1637C49.7916 17.3196 51.3493 19.9081 53.4787 24.4956C55.0904 28.5608 53.7668 29.8843 48.5851 27.6019C37.8752 22.3031 27.0481 22.5417 16.1176 27.6019C12.0839 30.2355 9.81942 28.0385 11.4941 24.9052ZM39.0096 53.9334C46.4918 51.5789 50.8586 46.8159 53.5372 40.7429C55.2794 36.0474 49.8187 34.4537 47.9009 37.5465C46.7529 39.8245 45.3843 41.7783 43.6016 43.2954C40.8104 45.6679 36.7677 46.1001 36.1374 50.5705C35.8088 52.8934 36.34 54.9823 39.0096 53.9334ZM26.1162 53.9334C18.6341 51.5789 14.2673 46.8159 11.5887 40.7429C9.84643 36.0474 15.3072 34.4537 17.225 37.5465C18.373 39.8245 19.7416 41.7783 21.5243 43.2954C24.3155 45.6679 28.3582 46.1001 28.9884 50.5705C29.3171 52.8934 28.7859 54.9823 26.1162 53.9334Z" fill="white"/>
</svg>
