<svg width="125" height="125" viewBox="0 0 125 125" fill="none" xmlns="http://www.w3.org/2000/svg">
<rect width="125" height="125" rx="25" fill="#D9D9D9"/>
<rect width="125" height="125" rx="25" fill="url(#paint0_linear_329_1166)"/>
<path fill-rule="evenodd" clip-rule="evenodd" d="M62.4999 34.8403C77.7748 34.8403 90.1595 47.225 90.1595 62.4999C90.1595 77.7748 77.7748 90.1595 62.4999 90.1595C47.225 90.1595 34.8403 77.7748 34.8403 62.4999C34.8403 47.225 47.225 34.8403 62.4999 34.8403ZM62.3784 62.5719C63.1707 62.5719 63.81 63.2112 63.81 64.0035C63.81 64.7959 63.1707 65.4351 62.3784 65.4351C61.586 65.4351 60.9468 64.7959 60.9468 64.0035C60.9468 63.2157 61.5905 62.5719 62.3784 62.5719ZM62.3919 58.8264C65.2461 58.8264 67.5555 61.1403 67.5555 63.99C67.5555 66.8442 65.2416 69.1537 62.3919 69.1537C59.5422 69.1537 57.2282 66.8397 57.2282 63.99C57.2282 61.1358 59.5422 58.8264 62.3919 58.8264ZM41.4941 54.9052C43.4975 49.3634 47.5807 44.686 52.7038 42.2955C59.7403 39.0136 68.2848 38.8065 75.5239 44.1637C79.7916 47.3196 81.3493 49.9081 83.4787 54.4956C85.0904 58.5608 83.7668 59.8843 78.5851 57.6019C67.8752 52.3031 57.0481 52.5417 46.1176 57.6019C42.0839 60.2355 39.8194 58.0385 41.4941 54.9052ZM69.0096 83.9334C76.4918 81.5789 80.8586 76.8159 83.5372 70.7429C85.2794 66.0474 79.8187 64.4537 77.9009 67.5465C76.7529 69.8245 75.3843 71.7783 73.6016 73.2954C70.8104 75.6679 66.7677 76.1001 66.1374 80.5705C65.8088 82.8934 66.34 84.9823 69.0096 83.9334ZM56.1162 83.9334C48.6341 81.5789 44.2673 76.8159 41.5887 70.7429C39.8464 66.0474 45.3072 64.4537 47.225 67.5465C48.373 69.8245 49.7416 71.7783 51.5243 73.2954C54.3155 75.6679 58.3582 76.1001 58.9884 80.5705C59.3171 82.8934 58.7859 84.9823 56.1162 83.9334Z" fill="white"/>
<defs>
<linearGradient id="paint0_linear_329_1166" x1="125" y1="62.5" x2="0" y2="62.5" gradientUnits="userSpaceOnUse">
<stop stop-color="#5BA4FA"/>
<stop offset="1" stop-color="#0788FF"/>
</linearGradient>
</defs>
</svg>
