<svg width="65" height="65" viewBox="0 0 65 65" fill="none" xmlns="http://www.w3.org/2000/svg">
<g clip-path="url(#clip0_2013_132)">
<path d="M29.7913 46.0417C35.7744 46.0417 40.6247 41.1914 40.6247 35.2083C40.6247 29.2252 35.7744 24.375 29.7913 24.375C23.8083 24.375 18.958 29.2252 18.958 35.2083C18.958 41.1914 23.8083 46.0417 29.7913 46.0417Z" stroke="white" stroke-width="4" stroke-linecap="round" stroke-linejoin="round"/>
<path d="M51.0792 29.7915C51.3175 31.579 51.4583 33.8865 51.4583 35.2082C51.4583 39.4934 50.1876 43.6825 47.8068 47.2455C45.4261 50.8086 42.0422 53.5857 38.0831 55.2256C34.1241 56.8655 29.7676 57.2945 25.5647 56.4585C21.3618 55.6225 17.5012 53.559 14.471 50.5288C11.4409 47.4987 9.37734 43.638 8.54133 39.4351C7.70532 35.2322 8.13439 30.8758 9.77429 26.9167C11.4142 22.9576 14.1913 19.5738 17.7543 17.193C21.3174 14.8122 25.5064 13.5415 29.7917 13.5415H46.0417" stroke="white" stroke-width="4" stroke-linecap="round" stroke-linejoin="round"/>
<path d="M29.792 24.375C36.533 24.6675 41.9497 24.6675 46.042 24.375" stroke="white" stroke-width="4" stroke-linecap="round" stroke-linejoin="round"/>
<path d="M54.167 8.125H48.7503C47.2546 8.125 46.042 9.33756 46.042 10.8333V27.0833C46.042 28.5791 47.2546 29.7917 48.7503 29.7917H54.167C55.6628 29.7917 56.8753 28.5791 56.8753 27.0833V10.8333C56.8753 9.33756 55.6628 8.125 54.167 8.125Z" stroke="white" stroke-width="4" stroke-linecap="round" stroke-linejoin="round"/>
<path d="M29.7917 35.2085L20.3125 31.146" stroke="white" stroke-width="4" stroke-linecap="round" stroke-linejoin="round"/>
<path d="M29.792 35.2085L36.5628 43.3335" stroke="white" stroke-width="4" stroke-linecap="round" stroke-linejoin="round"/>
<path d="M23.0205 43.3335L29.7913 35.2085" stroke="white" stroke-width="4" stroke-linecap="round" stroke-linejoin="round"/>
<path d="M29.792 35.2085L39.2712 31.146" stroke="white" stroke-width="4" stroke-linecap="round" stroke-linejoin="round"/>
<path d="M29.792 24.375V35.2083" stroke="white" stroke-width="4" stroke-linecap="round" stroke-linejoin="round"/>
</g>
<defs>
<clipPath id="clip0_2013_132">
<rect width="65" height="65" fill="white"/>
</clipPath>
</defs>
</svg>
