<svg width="66" height="65" viewBox="0 0 66 65" fill="none" xmlns="http://www.w3.org/2000/svg">
<path d="M35.2209 15.1113L32.9981 17.339L30.7685 15.1093C25.0835 9.42434 15.8664 9.42434 10.1814 15.1093C6.20862 19.0821 5.01209 24.7798 6.59182 29.7916H10.9387C9.15532 25.9153 9.86042 21.1755 13.054 17.9819C17.1525 13.8835 23.7974 13.8835 27.8959 17.9819L31.5723 21.6584C32.379 22.4651 33.6917 22.4494 34.4789 21.6235L38.0935 17.984C42.2024 13.8751 48.8517 13.8751 52.9605 17.984C56.1561 21.1795 56.8564 25.9099 55.0696 29.7916H59.417C61.0003 24.7783 59.8095 19.0877 55.8331 15.1113C50.1378 9.41601 40.9162 9.41602 35.2209 15.1113ZM31.5647 57.0797L13.7557 39.2708H19.072C19.2101 39.2708 19.3472 39.2648 19.4832 39.253L33.001 52.7708L46.5095 39.2708H52.2567L34.4373 57.0797C33.644 57.873 32.3579 57.873 31.5647 57.0797ZM26.015 22.7894C25.6674 22.0942 24.9535 21.6583 24.1762 21.6667C23.399 21.6751 22.6947 22.1264 22.3622 22.829L17.7858 32.4999H7.94824C6.82641 32.4999 5.91699 33.4093 5.91699 34.5311C5.91699 35.653 6.82641 36.5624 7.94824 36.5624H19.0718C19.857 36.5624 20.5719 36.1098 20.9078 35.4L24.2485 28.3404L31.1835 42.2104C31.5013 42.8459 32.128 43.2692 32.8361 43.3266C33.5443 43.384 34.231 43.0672 34.647 42.4913L41.9546 32.3731L45.0133 35.8687C45.399 36.3095 45.9563 36.5624 46.542 36.5624H58.0524C59.1742 36.5624 60.0837 35.653 60.0837 34.5311C60.0837 33.4093 59.1742 32.4999 58.0524 32.4999H47.4637L43.3311 27.7769C42.9235 27.3111 42.3259 27.0566 41.7076 27.0854C41.0894 27.1143 40.5181 27.4235 40.1557 27.9252L33.3173 37.3938L26.015 22.7894Z" fill="white"/>
</svg>
