<svg width="126" height="125" viewBox="0 0 126 125" fill="none" xmlns="http://www.w3.org/2000/svg">
<rect x="0.5" width="125" height="125" rx="25" fill="#D9D9D9"/>
<rect x="0.5" width="125" height="125" rx="25" fill="url(#paint0_linear_220_1071)"/>
<path d="M65.2209 45.1113L62.9981 47.339L60.7685 45.1093C55.0835 39.4243 45.8664 39.4243 40.1814 45.1093C36.2086 49.0821 35.0121 54.7798 36.5918 59.7916H40.9387C39.1553 55.9153 39.8604 51.1755 43.054 47.9819C47.1525 43.8835 53.7974 43.8835 57.8959 47.9819L61.5723 51.6584C62.379 52.4651 63.6917 52.4494 64.4789 51.6235L68.0935 47.984C72.2024 43.8751 78.8517 43.8751 82.9605 47.984C86.1561 51.1795 86.8564 55.9099 85.0696 59.7916H89.417C91.0003 54.7783 89.8095 49.0877 85.8331 45.1113C80.1378 39.416 70.9162 39.416 65.2209 45.1113ZM61.5647 87.0797L43.7557 69.2708H49.072C49.2101 69.2708 49.3472 69.2648 49.4832 69.253L63.001 82.7708L76.5095 69.2708H82.2567L64.4373 87.0797C63.644 87.873 62.3579 87.873 61.5647 87.0797ZM56.015 52.7894C55.6674 52.0942 54.9535 51.6583 54.1762 51.6667C53.399 51.6751 52.6947 52.1264 52.3622 52.829L47.7858 62.4999H37.9482C36.8264 62.4999 35.917 63.4093 35.917 64.5311C35.917 65.653 36.8264 66.5624 37.9482 66.5624H49.0718C49.857 66.5624 50.5719 66.1098 50.9078 65.4L54.2485 58.3404L61.1835 72.2104C61.5013 72.8459 62.128 73.2692 62.8361 73.3266C63.5443 73.384 64.231 73.0672 64.647 72.4913L71.9546 62.3731L75.0133 65.8687C75.399 66.3095 75.9563 66.5624 76.542 66.5624H88.0524C89.1742 66.5624 90.0837 65.653 90.0837 64.5311C90.0837 63.4093 89.1742 62.4999 88.0524 62.4999H77.4637L73.3311 57.7769C72.9235 57.3111 72.3259 57.0566 71.7076 57.0854C71.0894 57.1143 70.5181 57.4235 70.1557 57.9252L63.3173 67.3938L56.015 52.7894Z" fill="white"/>
<defs>
<linearGradient id="paint0_linear_220_1071" x1="125.5" y1="62.5" x2="0.5" y2="62.5" gradientUnits="userSpaceOnUse">
<stop stop-color="#5BA4FA"/>
<stop offset="1" stop-color="#0788FF"/>
</linearGradient>
</defs>
</svg>
