<svg width="126" height="125" viewBox="0 0 126 125" fill="none" xmlns="http://www.w3.org/2000/svg">
<rect x="0.5" width="125" height="125" rx="25" fill="#D9D9D9"/>
<rect x="0.5" width="125" height="125" rx="25" fill="url(#paint0_linear_220_1000)"/>
<path d="M58.9378 51.6665C54.4505 51.6665 50.8128 55.3042 50.8128 59.7915C50.8128 64.2788 54.4505 67.9165 58.9378 67.9165C63.4251 67.9165 67.0628 64.2788 67.0628 59.7915C67.0628 55.3042 63.4251 51.6665 58.9378 51.6665ZM54.8753 59.7915C54.8753 57.5478 56.6942 55.729 58.9378 55.729C61.1815 55.729 63.0003 57.5478 63.0003 59.7915C63.0003 62.0352 61.1815 63.854 58.9378 63.854C56.6942 63.854 54.8753 62.0352 54.8753 59.7915ZM35.917 49.6353C35.917 46.2698 38.6453 43.5415 42.0107 43.5415H75.8649C79.2304 43.5415 81.9587 46.2698 81.9587 49.6353V69.9478C81.9587 73.3132 79.2304 76.0415 75.8649 76.0415H42.0107C38.6453 76.0415 35.917 73.3132 35.917 69.9478V49.6353ZM42.0107 47.604C40.8889 47.604 39.9795 48.5134 39.9795 49.6353V51.6665H42.0107C43.1326 51.6665 44.042 50.7571 44.042 49.6353V47.604H42.0107ZM39.9795 63.854H42.0107C45.3762 63.854 48.1045 66.5823 48.1045 69.9478V71.979H69.7712V69.9478C69.7712 66.5823 72.4994 63.854 75.8649 63.854H77.8962V55.729H75.8649C72.4994 55.729 69.7712 53.0007 69.7712 49.6353V47.604H48.1045V49.6353C48.1045 53.0007 45.3762 55.729 42.0107 55.729H39.9795V63.854ZM77.8962 51.6665V49.6353C77.8962 48.5134 76.9867 47.604 75.8649 47.604H73.8337V49.6353C73.8337 50.7571 74.7431 51.6665 75.8649 51.6665H77.8962ZM77.8962 67.9165H75.8649C74.7431 67.9165 73.8337 68.8259 73.8337 69.9478V71.979H75.8649C76.9867 71.979 77.8962 71.0696 77.8962 69.9478V67.9165ZM39.9795 69.9478C39.9795 71.0696 40.8889 71.979 42.0107 71.979H44.042V69.9478C44.042 68.8259 43.1326 67.9165 42.0107 67.9165H39.9795V69.9478ZM42.4207 80.1041C43.8255 82.5326 46.4513 84.1666 49.4587 84.1666H77.2191C84.324 84.1666 90.0837 78.4069 90.0837 71.302V57.0832C90.0837 54.0758 88.4498 51.4501 86.0212 50.0452V71.302C86.0212 76.1632 82.0804 80.1041 77.2191 80.1041H42.4207Z" fill="white"/>
<defs>
<linearGradient id="paint0_linear_220_1000" x1="125.5" y1="62.5" x2="0.5" y2="62.5" gradientUnits="userSpaceOnUse">
<stop stop-color="#5BA4FA"/>
<stop offset="1" stop-color="#0788FF"/>
</linearGradient>
</defs>
</svg>
