<svg width="66" height="65" viewBox="0 0 66 65" fill="none" xmlns="http://www.w3.org/2000/svg">
<path d="M28.9378 21.6665C24.4505 21.6665 20.8128 25.3042 20.8128 29.7915C20.8128 34.2788 24.4505 37.9165 28.9378 37.9165C33.4251 37.9165 37.0628 34.2788 37.0628 29.7915C37.0628 25.3042 33.4251 21.6665 28.9378 21.6665ZM24.8753 29.7915C24.8753 27.5478 26.6942 25.729 28.9378 25.729C31.1815 25.729 33.0003 27.5478 33.0003 29.7915C33.0003 32.0352 31.1815 33.854 28.9378 33.854C26.6942 33.854 24.8753 32.0352 24.8753 29.7915ZM5.91699 19.6353C5.91699 16.2698 8.64526 13.5415 12.0107 13.5415H45.8649C49.2304 13.5415 51.9587 16.2698 51.9587 19.6353V39.9478C51.9587 43.3132 49.2304 46.0415 45.8649 46.0415H12.0107C8.64526 46.0415 5.91699 43.3132 5.91699 39.9478V19.6353ZM12.0107 17.604C10.8889 17.604 9.97949 18.5134 9.97949 19.6353V21.6665H12.0107C13.1326 21.6665 14.042 20.7571 14.042 19.6353V17.604H12.0107ZM9.97949 33.854H12.0107C15.3762 33.854 18.1045 36.5823 18.1045 39.9478V41.979H39.7712V39.9478C39.7712 36.5823 42.4994 33.854 45.8649 33.854H47.8962V25.729H45.8649C42.4994 25.729 39.7712 23.0007 39.7712 19.6353V17.604H18.1045V19.6353C18.1045 23.0007 15.3762 25.729 12.0107 25.729H9.97949V33.854ZM47.8962 21.6665V19.6353C47.8962 18.5134 46.9867 17.604 45.8649 17.604H43.8337V19.6353C43.8337 20.7571 44.7431 21.6665 45.8649 21.6665H47.8962ZM47.8962 37.9165H45.8649C44.7431 37.9165 43.8337 38.8259 43.8337 39.9478V41.979H45.8649C46.9867 41.979 47.8962 41.0696 47.8962 39.9478V37.9165ZM9.97949 39.9478C9.97949 41.0696 10.8889 41.979 12.0107 41.979H14.042V39.9478C14.042 38.8259 13.1326 37.9165 12.0107 37.9165H9.97949V39.9478ZM12.4207 50.1041C13.8255 52.5326 16.4513 54.1666 19.4587 54.1666H47.2191C54.324 54.1666 60.0837 48.4069 60.0837 41.302V27.0832C60.0837 24.0758 58.4498 21.4501 56.0212 20.0452V41.302C56.0212 46.1632 52.0804 50.1041 47.2191 50.1041H12.4207Z" fill="white"/>
</svg>
