<svg width="126" height="125" viewBox="0 0 126 125" fill="none" xmlns="http://www.w3.org/2000/svg">
<rect x="0.5" width="125" height="125" rx="25" fill="#D9D9D9"/>
<rect x="0.5" width="125" height="125" rx="25" fill="url(#paint0_linear_220_1039)"/>
<path d="M63.0003 43.5418C75.7144 43.5418 86.0212 53.8486 86.0212 66.5627C86.0212 79.2767 75.7144 89.5835 63.0003 89.5835C50.2863 89.5835 39.9795 79.2767 39.9795 66.5627C39.9795 53.8486 50.2863 43.5418 63.0003 43.5418ZM63.0003 47.6043C52.5299 47.6043 44.042 56.0923 44.042 66.5627C44.042 77.0331 52.5299 85.521 63.0003 85.521C73.4707 85.521 81.9587 77.0331 81.9587 66.5627C81.9587 56.0923 73.4707 47.6043 63.0003 47.6043ZM63.0003 51.6668C64.0287 51.6668 64.8785 52.431 65.013 53.4225L65.0316 53.6981V65.8856C65.0316 67.0074 64.1222 67.9168 63.0003 67.9168C61.972 67.9168 61.1221 67.1527 60.9876 66.1612L60.9691 65.8856V53.6981C60.9691 52.5763 61.8785 51.6668 63.0003 51.6668ZM82.3573 43.8498L82.581 44.0119L85.7184 46.6232C86.5806 47.3409 86.6978 48.6216 85.9801 49.4839C85.3223 50.2742 84.1912 50.4386 83.3432 49.9077L83.1194 49.7456L79.9821 47.1343C79.1199 46.4166 79.0027 45.1359 79.7203 44.2736C80.3782 43.4832 81.5092 43.3189 82.3573 43.8498ZM69.0941 36.771C70.2159 36.771 71.1253 37.6804 71.1253 38.8022C71.1253 39.8306 70.3612 40.6805 69.3697 40.815L69.0941 40.8335H56.9066C55.7847 40.8335 54.8753 39.9241 54.8753 38.8022C54.8753 37.7739 55.6395 36.924 56.6309 36.7895L56.9066 36.771H69.0941Z" fill="white"/>
<defs>
<linearGradient id="paint0_linear_220_1039" x1="125.5" y1="62.5" x2="0.5" y2="62.5" gradientUnits="userSpaceOnUse">
<stop stop-color="#5BA4FA"/>
<stop offset="1" stop-color="#0788FF"/>
</linearGradient>
</defs>
</svg>
