<svg width="66" height="65" viewBox="0 0 66 65" fill="none" xmlns="http://www.w3.org/2000/svg">
<path d="M33.0003 13.5418C45.7144 13.5418 56.0212 23.8486 56.0212 36.5627C56.0212 49.2767 45.7144 59.5835 33.0003 59.5835C20.2863 59.5835 9.97949 49.2767 9.97949 36.5627C9.97949 23.8486 20.2863 13.5418 33.0003 13.5418ZM33.0003 17.6043C22.5299 17.6043 14.042 26.0923 14.042 36.5627C14.042 47.0331 22.5299 55.521 33.0003 55.521C43.4707 55.521 51.9587 47.0331 51.9587 36.5627C51.9587 26.0923 43.4707 17.6043 33.0003 17.6043ZM33.0003 21.6668C34.0287 21.6668 34.8785 22.431 35.013 23.4225L35.0316 23.6981V35.8856C35.0316 37.0074 34.1222 37.9168 33.0003 37.9168C31.972 37.9168 31.1221 37.1527 30.9876 36.1612L30.9691 35.8856V23.6981C30.9691 22.5763 31.8785 21.6668 33.0003 21.6668ZM52.3573 13.8498L52.581 14.0119L55.7184 16.6232C56.5806 17.3409 56.6978 18.6216 55.9801 19.4839C55.3223 20.2742 54.1912 20.4386 53.3432 19.9077L53.1194 19.7456L49.9821 17.1343C49.1199 16.4166 49.0027 15.1359 49.7203 14.2736C50.3782 13.4832 51.5092 13.3189 52.3573 13.8498ZM39.0941 6.771C40.2159 6.771 41.1253 7.68042 41.1253 8.80225C41.1253 9.83059 40.3612 10.6805 39.3697 10.815L39.0941 10.8335H26.9066C25.7847 10.8335 24.8753 9.92407 24.8753 8.80225C24.8753 7.7739 25.6395 6.92404 26.6309 6.78954L26.9066 6.771H39.0941Z" fill="white"/>
</svg>
