<svg width="45" height="45" viewBox="0 0 45 45" fill="none" xmlns="http://www.w3.org/2000/svg">
<path d="M29.5944 19.1619C30.1436 19.711 30.1436 20.6014 29.5944 21.1506L21.1506 29.5946C20.8869 29.8583 20.5292 30.0065 20.1563 30.0065C19.7833 30.0065 19.4256 29.8583 19.1619 29.5946L15.4119 25.8446C14.8627 25.2954 14.8627 24.405 15.4119 23.8559C15.9611 23.3067 16.8514 23.3067 17.4006 23.8559L20.1562 26.6115L27.6057 19.1619C28.1548 18.6127 29.0452 18.6127 29.5944 19.1619Z" fill="#04071E"/>
<path d="M29.5944 19.1619C30.1436 19.711 30.1436 20.6014 29.5944 21.1506L21.1506 29.5946C20.8869 29.8583 20.5292 30.0065 20.1563 30.0065C19.7833 30.0065 19.4256 29.8583 19.1619 29.5946L15.4119 25.8446C14.8627 25.2954 14.8627 24.405 15.4119 23.8559C15.9611 23.3067 16.8514 23.3067 17.4006 23.8559L20.1562 26.6115L27.6057 19.1619C28.1548 18.6127 29.0452 18.6127 29.5944 19.1619Z" fill="url(#paint0_linear_317_361)"/>
<defs>
<linearGradient id="paint0_linear_317_361" x1="39.3116" y1="22.0312" x2="5.625" y2="22.0312" gradientUnits="userSpaceOnUse">
<stop stop-color="#5BA4FA"/>
<stop offset="1" stop-color="#0788FF"/>
</linearGradient>
</defs>
</svg>
