<svg width="40" height="40" viewBox="0 0 40 40" fill="none" xmlns="http://www.w3.org/2000/svg">
<path d="M8.74967 6.66699H31.2497C34.1381 6.66699 36.4984 8.92775 36.6578 11.7763L36.6663 12.0837V27.917C36.6663 30.8054 34.4056 33.1657 31.557 33.3251L31.2497 33.3337H8.74967C5.86129 33.3337 3.50093 31.0729 3.34158 28.2244L3.33301 27.917V12.0837C3.33301 9.19527 5.59377 6.83492 8.4423 6.67557L8.74967 6.66699H31.2497H8.74967ZM34.1663 15.622L20.5819 22.7731C20.2695 22.9375 19.9049 22.961 19.5776 22.8436L19.4175 22.7731L5.83301 15.6237V27.917C5.83301 29.4473 7.01153 30.7023 8.51046 30.824L8.74967 30.8337H31.2497C32.78 30.8337 34.035 29.6551 34.1567 28.1562L34.1663 27.917V15.622ZM31.2497 9.16699H8.74967C7.21939 9.16699 5.96435 10.3455 5.84268 11.8444L5.83301 12.0837V12.7987L19.9997 20.2544L34.1663 12.797V12.0837C34.1663 10.5534 32.9878 9.29834 31.4889 9.17666L31.2497 9.16699Z" fill="white"/>
</svg>
